<svg width="30" height="30" viewBox="0 0 30 30" fill="none" xmlns="http://www.w3.org/2000/svg">
<g clip-path="url(#clip0)">
<path d="M10.3876 5.77954H5.14206C4.6566 5.77954 4.26315 6.17299 4.26315 6.65845C4.26315 7.14391 4.6566 7.53735 5.14206 7.53735H10.3873C10.8728 7.53735 11.2663 7.14391 11.2663 6.65845C11.2663 6.17299 10.8728 5.77954 10.3876 5.77954Z" fill="white"/>
<path d="M10.3876 9.29541H5.14206C4.6566 9.29541 4.26315 9.68886 4.26315 10.1743C4.26315 10.6598 4.6566 11.0532 5.14206 11.0532H10.3873C10.8728 11.0532 11.2663 10.6598 11.2663 10.1743C11.2663 9.68886 10.8728 9.29541 10.3876 9.29541Z" fill="white"/>
<path d="M10.3876 12.8113H5.14206C4.6566 12.8113 4.26315 13.2047 4.26315 13.6902C4.26315 14.1756 4.6566 14.5691 5.14206 14.5691H10.3873C10.8728 14.5691 11.2663 14.1756 11.2663 13.6902C11.2663 13.2047 10.8728 12.8113 10.3876 12.8113Z" fill="white"/>
<path d="M10.3876 16.3271H5.14206C4.6566 16.3271 4.26315 16.7206 4.26315 17.2061C4.26315 17.6915 4.6566 18.085 5.14206 18.085H10.3873C10.8728 18.085 11.2663 17.6915 11.2663 17.2061C11.2663 16.7206 10.8728 16.3271 10.3876 16.3271Z" fill="white"/>
<path d="M10.3876 19.9019H5.14206C4.6566 19.9019 4.26315 20.2955 4.26315 20.7808C4.26315 21.2662 4.6566 21.6597 5.14206 21.6597H10.3873C10.8728 21.6597 11.2663 21.2662 11.2663 20.7808C11.2663 20.2955 10.8728 19.9019 10.3876 19.9019Z" fill="white"/>
<path d="M13.3395 7.53735H18.5847C19.0702 7.53735 19.4637 7.14391 19.4637 6.65845C19.4637 6.17299 19.0702 5.77954 18.5847 5.77954H13.3395C12.854 5.77954 12.4606 6.17299 12.4606 6.65845C12.4606 7.14391 12.854 7.53735 13.3395 7.53735Z" fill="white"/>
<path d="M13.3395 11.0532H18.5847C19.0702 11.0532 19.4637 10.6598 19.4637 10.1743C19.4637 9.68886 19.0702 9.29541 18.5847 9.29541H13.3395C12.854 9.29541 12.4606 9.68886 12.4606 10.1743C12.4606 10.6598 12.854 11.0532 13.3395 11.0532Z" fill="white"/>
<path d="M16.7445 13.6902C16.7445 13.2047 16.3511 12.8113 15.8656 12.8113H13.3395C12.854 12.8113 12.4606 13.2047 12.4606 13.6902C12.4606 14.1756 12.854 14.5691 13.3395 14.5691H15.8656C16.3511 14.5691 16.7445 14.1756 16.7445 13.6902Z" fill="white"/>
<path d="M24.5911 20.2446C24.2514 19.8978 23.695 19.8916 23.348 20.2313L22.0876 21.4656L20.8269 20.2313C20.4801 19.8919 19.9235 19.8976 19.584 20.2446C19.2444 20.5913 19.2503 21.1477 19.5971 21.4874L20.8312 22.6957L19.5971 23.9039C19.2503 24.2436 19.2444 24.8 19.584 25.1468C19.7562 25.3225 19.9839 25.4109 20.2121 25.4109C20.4339 25.4109 20.6559 25.3273 20.8269 25.1598L22.0876 23.9257L23.348 25.1598C23.5192 25.3273 23.741 25.4109 23.963 25.4109C24.191 25.4109 24.4187 25.3225 24.5911 25.1468C24.9305 24.8 24.9248 24.2434 24.5778 23.9039L23.3439 22.6957L24.5778 21.4874C24.9248 21.1477 24.9305 20.5913 24.5911 20.2446Z" fill="white"/>
<path d="M27.2921 17.5747C26.1472 16.4097 24.6762 15.6754 23.0823 15.4591V3.53966C23.0823 1.58798 21.4943 0 19.5426 0H4.18442C2.23251 0 0.644531 1.58798 0.644531 3.53966V23.8994C0.644531 25.8513 2.23251 27.4393 4.18419 27.4393H16.5367C17.9267 29.0721 19.9253 30 22.0876 30C26.1124 30 29.3868 26.7233 29.3868 22.6957C29.3868 20.7676 28.643 18.9489 27.2921 17.5747ZM2.40234 23.8994V3.53966C2.40234 2.5573 3.20183 1.75781 4.18442 1.75781H19.5426C20.5252 1.75781 21.3245 2.5573 21.3245 3.53966V15.4312C17.6569 15.8141 14.7883 18.9258 14.7883 22.6957C14.7883 23.7405 15.0062 24.7508 15.4241 25.6812H4.18442C3.20183 25.6812 2.40234 24.882 2.40234 23.8994ZM22.0876 28.2422C20.3323 28.2422 18.7186 27.4363 17.6601 26.0314C16.9313 25.0642 16.5461 23.9106 16.5461 22.6957C16.5461 19.6374 19.032 17.1492 22.0876 17.1492C22.1164 17.1492 22.1455 17.1497 22.1743 17.1501L22.1878 17.1503C23.6465 17.1762 25.014 17.7644 26.0385 18.8068C27.0641 19.8502 27.629 21.2315 27.629 22.6957C27.629 25.754 25.1431 28.2422 22.0876 28.2422Z" fill="white"/>
</g>
<defs>
<clipPath id="clip0">
<rect width="30" height="30" fill="white"/>
</clipPath>
</defs>
</svg>
