<svg width="30" height="30" viewBox="0 0 30 30" fill="none" xmlns="http://www.w3.org/2000/svg">
<g clip-path="url(#clip0)">
<path d="M26.509 12.3179C27.1035 11.4071 26.9937 10.2222 26.242 9.43623C25.9107 9.08982 25.7722 8.60314 25.8715 8.13428C26.0969 7.07027 25.5664 6.00498 24.5815 5.54367C24.1475 5.34035 23.8426 4.93652 23.7657 4.46344C23.5915 3.38988 22.712 2.58814 21.6271 2.51373C21.1489 2.48092 20.7186 2.21455 20.4761 1.80111C19.9258 0.863086 18.8164 0.433184 17.7775 0.755684C17.3198 0.897832 16.8224 0.804785 16.4469 0.506953C15.5949 -0.168984 14.4049 -0.168984 13.553 0.506953C13.1775 0.804902 12.68 0.897832 12.2224 0.755684C11.1837 0.433125 10.074 0.863027 9.52376 1.80111C9.28124 2.21455 8.85105 2.48092 8.37287 2.51373C7.28783 2.58814 6.40839 3.38994 6.23414 4.46344C6.15738 4.93652 5.8524 5.34035 5.41839 5.54367C4.43355 6.00504 3.9031 7.07033 4.12839 8.13428C4.22771 8.60314 4.08919 9.08988 3.75796 9.43629C3.00632 10.2223 2.89646 11.4073 3.49095 12.318C3.75292 12.7193 3.79962 13.2232 3.61581 13.6659C3.1988 14.6703 3.52453 15.8149 4.40777 16.4494C4.79706 16.729 5.02259 17.182 5.01111 17.6612C4.98515 18.7484 5.70234 19.698 6.75515 19.9706C7.06593 20.0511 7.33593 20.2309 7.52941 20.4762L5.10808 26.3217C4.76876 27.1409 5.53675 27.9844 6.38361 27.7245L9.03451 26.9109C9.11197 26.8873 9.19552 26.922 9.23343 26.9934L10.5326 29.4431C10.9482 30.2267 12.0876 30.1714 12.4265 29.3531L14.9502 23.2605C14.9833 23.2594 15.0164 23.2594 15.0495 23.2605L17.5732 29.3531C17.9127 30.1727 19.052 30.2256 19.4671 29.4431L20.7663 26.9934C20.8042 26.9219 20.8878 26.8873 20.9652 26.911L23.6161 27.7245C24.4634 27.9846 25.2308 27.1404 24.8917 26.3217L22.4703 20.4762C22.6638 20.231 22.9338 20.0511 23.2445 19.9707C24.2974 19.6982 25.0145 18.7485 24.9886 17.6612C24.9771 17.1821 25.2027 16.7291 25.592 16.4495C26.4753 15.815 26.8009 14.6704 26.3839 13.6659C26.2004 13.2231 26.2471 12.7192 26.509 12.3179ZM11.6147 29.0167C11.5595 29.1498 11.3764 29.1579 11.3092 29.0312L10.01 26.5815C9.77496 26.1384 9.25634 25.9237 8.77687 26.0708L6.12597 26.8843C5.98845 26.9263 5.86511 26.7909 5.92019 26.6579L8.06835 21.4716C8.55304 22.1355 9.36328 22.5056 10.2162 22.406C10.6922 22.3505 11.1641 22.5332 11.4785 22.8949C11.9345 23.4199 12.5771 23.6986 13.2327 23.6985C13.4401 23.6985 13.6486 23.6695 13.8531 23.6128L11.6147 29.0167ZM23.8741 26.8842L21.2232 26.0707C20.7438 25.9236 20.225 26.1384 19.9901 26.5815L18.6909 29.0312C18.6238 29.1578 18.4404 29.1496 18.3853 29.0166L16.1473 23.6138C16.998 23.8499 17.9214 23.5856 18.5216 22.8948C18.8359 22.533 19.3076 22.3502 19.7838 22.4058C20.6376 22.5056 21.4473 22.1355 21.9317 21.4716L24.08 26.6577C24.1352 26.7912 24.0111 26.9261 23.8741 26.8842ZM25.7731 11.8375C25.3523 12.4822 25.2773 13.2916 25.5725 14.0027C25.832 14.628 25.6294 15.3405 25.0795 15.7355C24.4542 16.1847 24.0918 16.9124 24.1102 17.682C24.1264 18.3589 23.6799 18.9501 23.0245 19.1197C22.4114 19.2785 21.8966 19.6775 21.5879 20.2171C21.587 20.2187 21.5862 20.2202 21.5853 20.2217C21.5199 20.3367 21.4632 20.4578 21.4175 20.5846C21.1881 21.2216 20.5587 21.612 19.8858 21.5331C19.1212 21.4437 18.3631 21.7374 17.8582 22.3186C17.4142 22.8296 16.686 22.9658 16.0873 22.6496C15.8836 22.5421 15.668 22.4674 15.4478 22.4242C15.446 22.4238 15.4442 22.4234 15.4424 22.4231C15.1499 22.3664 14.8493 22.3665 14.5568 22.4233C14.5557 22.4235 14.5547 22.4238 14.5537 22.4239C14.333 22.4671 14.1169 22.5419 13.9128 22.6496C13.3141 22.9658 12.5859 22.8296 12.142 22.3186C11.6968 21.8062 11.055 21.5173 10.3852 21.5173C10.2953 21.5173 10.2048 21.5225 10.1143 21.5331C9.44208 21.6118 8.81191 21.2217 8.58251 20.5847C8.53687 20.4579 8.48027 20.3371 8.41488 20.2221C8.41388 20.2202 8.41289 20.2185 8.41189 20.2166C8.1031 19.6772 7.58847 19.2784 6.97558 19.1197C6.32015 18.95 5.87372 18.3589 5.8899 17.6821C5.9083 16.9124 5.54595 16.1848 4.92064 15.7355C4.37079 15.3405 4.168 14.628 4.42763 14.0027C4.72283 13.2916 4.64783 12.4822 4.22701 11.8375C3.85699 11.2706 3.92531 10.5329 4.39329 10.0436C4.92538 9.48721 5.14787 8.70533 4.98837 7.95217C4.8481 7.28982 5.17833 6.62666 5.7914 6.33943C6.48861 6.01283 6.97845 5.36414 7.10185 4.60418C7.21031 3.93586 7.75781 3.43676 8.43322 3.39047C9.20132 3.33779 9.89249 2.90988 10.282 2.24572C10.6246 1.66178 11.3156 1.39424 11.9619 1.59498C12.6972 1.82332 13.4962 1.67396 14.0994 1.19543C14.6297 0.774609 15.3705 0.774609 15.901 1.19543C16.5041 1.67391 17.303 1.82338 18.0384 1.59498C18.685 1.39418 19.3758 1.66184 19.7183 2.24572C20.1078 2.90982 20.799 3.33773 21.5671 3.39047C22.2425 3.43682 22.79 3.93592 22.8985 4.60418C23.0219 5.36414 23.5118 6.01283 24.2089 6.33949C24.8221 6.62666 25.1522 7.28982 25.012 7.95217C24.8525 8.70533 25.0749 9.48721 25.607 10.0436C26.0748 10.5329 26.1431 11.2706 25.7731 11.8375Z" fill="white"/>
<path d="M6.67679 11.2577C6.91744 11.2873 7.13699 11.1161 7.16658 10.8752C7.65185 6.93101 11.0195 3.95673 15 3.95673C18.9824 3.95673 22.3502 6.93259 22.8338 10.8789C22.8612 11.1017 23.0506 11.265 23.2694 11.265C23.2873 11.265 23.3053 11.2638 23.3235 11.2616C23.5643 11.2321 23.7357 11.0129 23.7062 10.772C23.1685 6.38561 19.4257 3.07788 15 3.07788C10.5763 3.07788 6.83371 6.38386 6.29429 10.7679C6.2647 11.0088 6.43592 11.228 6.67679 11.2577Z" fill="white"/>
<path d="M23.3235 12.4369C23.0834 12.4076 22.8635 12.5787 22.8339 12.8196C22.3504 16.7661 18.9826 19.7422 15 19.7422C11.0193 19.7422 7.65158 16.7676 7.16648 12.823C7.13689 12.5822 6.91775 12.4111 6.6767 12.4405C6.43588 12.4701 6.26455 12.6895 6.2942 12.9303C6.83338 17.3147 10.576 20.6209 14.9999 20.6209C19.4259 20.6209 23.1687 17.313 23.7062 12.9264C23.7357 12.6856 23.5644 12.4664 23.3235 12.4369Z" fill="white"/>
<path d="M21.205 10.0358C21.0933 9.69208 20.7878 9.46157 20.4266 9.44862L16.9812 9.32505L15.799 6.08645C15.675 5.74696 15.3614 5.52759 15 5.52759C14.6386 5.52759 14.325 5.74696 14.2011 6.08645L13.0189 9.32505L9.5735 9.44862C9.21233 9.46157 8.90676 9.69208 8.79508 10.0358C8.6834 10.3795 8.79508 10.7456 9.07967 10.9684L11.7944 13.0935L10.8473 16.4085C10.748 16.756 10.8728 17.1178 11.1652 17.3303C11.4573 17.5425 11.84 17.5498 12.14 17.3478L15 15.4225L17.86 17.3476C18.1597 17.5494 18.5424 17.5426 18.8348 17.3302C19.1273 17.1178 19.252 16.756 19.1527 16.4084L18.2056 13.0934L20.9203 10.9683C21.2049 10.7455 21.3167 10.3795 21.205 10.0358ZM17.6489 12.4132C17.375 12.6276 17.2598 12.9823 17.3554 13.3166L18.2864 16.5753L15.475 14.6829C15.3307 14.5858 15.1653 14.5372 15 14.5372C14.8346 14.5372 14.6693 14.5858 14.525 14.6829L11.7135 16.5753L12.6446 13.3166C12.7401 12.9822 12.6249 12.6276 12.3511 12.4132L9.68237 10.3241L13.0694 10.2025C13.417 10.1901 13.7186 9.97087 13.8378 9.64421L15 6.46058L16.1622 9.64421C16.2815 9.97087 16.5831 10.1901 16.9307 10.2025L20.3176 10.324L17.6489 12.4132Z" fill="white"/>
</g>
<defs>
<clipPath id="clip0">
<rect width="30" height="30" fill="white"/>
</clipPath>
</defs>
</svg>
