<svg width="20" height="20" viewBox="0 0 20 20" fill="none" xmlns="http://www.w3.org/2000/svg">
<path d="M19.707 0.292994C19.3164 -0.0976646 18.6836 -0.0976646 18.293 0.292994L10 8.58597L1.70703 0.292994C1.31637 -0.0976646 0.683558 -0.0976646 0.292994 0.292994C-0.0976646 0.683652 -0.0976646 1.31647 0.292994 1.70703L8.58597 10L0.292994 18.293C-0.0976646 18.6836 -0.0976646 19.3165 0.292994 19.707C0.488276 19.9023 0.744214 20 1.00006 20C1.2559 20 1.51175 19.9023 1.70713 19.707L10.0001 11.4141L18.2931 19.707C18.4884 19.9023 18.7443 20 19.0002 20C19.256 20 19.5118 19.9023 19.7072 19.707C20.0979 19.3164 20.0979 18.6836 19.7072 18.293L11.4142 10L19.7072 1.70703C20.0977 1.31647 20.0977 0.683652 19.707 0.292994Z" fill="#C1535D"/>
</svg>
