<svg width="20" height="20" viewBox="0 0 20 20" fill="none" xmlns="http://www.w3.org/2000/svg">
<path d="M13.9739 7.61157H12.927C12.6994 7.61157 12.4828 7.72095 12.3489 7.90622L10.0007 11.1518L7.65249 7.90622C7.51856 7.72095 7.30427 7.61157 7.07436 7.61157H6.02749C5.8824 7.61157 5.79758 7.77675 5.8824 7.89505L9.85561 13.3861C9.92704 13.4843 10.0721 13.4843 10.1436 13.3861L14.1168 7.89505C14.2038 7.77675 14.119 7.61157 13.9739 7.61157Z" fill="#AD1927"/>
<path d="M10 0C4.47768 0 0 4.47768 0 10C0 15.5223 4.47768 20 10 20C15.5223 20 20 15.5223 20 10C20 4.47768 15.5223 0 10 0ZM10 18.3036C5.41518 18.3036 1.69643 14.5848 1.69643 10C1.69643 5.41518 5.41518 1.69643 10 1.69643C14.5848 1.69643 18.3036 5.41518 18.3036 10C18.3036 14.5848 14.5848 18.3036 10 18.3036Z" fill="#AD1927"/>
</svg>
