<svg width="22" height="20" viewBox="0 0 22 20" fill="none" xmlns="http://www.w3.org/2000/svg">
<path d="M3.63172 8.3528H8.3529C8.55373 8.3528 8.71607 8.1901 8.71607 7.98963C8.71607 7.78916 8.55373 7.62646 8.3529 7.62646H3.63172C3.43089 7.62646 3.26855 7.78916 3.26855 7.98963C3.26855 8.1901 3.43089 8.3528 3.63172 8.3528Z" fill="black"/>
<path d="M13.0741 9.80554H3.63172C3.43089 9.80554 3.26855 9.96824 3.26855 10.1687C3.26855 10.3692 3.43089 10.5319 3.63172 10.5319H13.0741C13.2749 10.5319 13.4372 10.3692 13.4372 10.1687C13.4372 9.96824 13.2749 9.80554 13.0741 9.80554Z" fill="black"/>
<path d="M13.0741 11.9845H3.63172C3.43089 11.9845 3.26855 12.1472 3.26855 12.3477C3.26855 12.5481 3.43089 12.7108 3.63172 12.7108H13.0741C13.2749 12.7108 13.4372 12.5481 13.4372 12.3477C13.4372 12.1472 13.2749 11.9845 13.0741 11.9845Z" fill="black"/>
<path d="M19.6372 0.0254218L7.23793 0C6.05037 0 5.08435 0.966026 5.08435 2.15358V4.01445L2.15358 4.02063C0.966026 4.02063 0 4.98665 0 6.17421V13.8519C0 15.0395 0.966026 16.0052 2.15358 16.0052H4.35801V19.6368C4.35801 19.7868 4.45026 19.9216 4.59044 19.9757C4.63293 19.992 4.67724 20 4.72118 20C4.82141 20 4.91983 19.9582 4.98992 19.8812L8.5141 16.0044L14.5521 15.9797C15.7397 15.9797 16.7057 15.0137 16.7057 13.8265V13.7855L18.616 15.8868C18.6861 15.9638 18.7845 16.0055 18.8847 16.0055C18.9287 16.0055 18.973 15.9975 19.0155 15.9812C19.1556 15.9271 19.2479 15.7923 19.2479 15.6424V12.0107H19.6365C20.824 12.0107 21.7901 11.0447 21.7901 9.85746V2.17901C21.7901 0.991811 20.8244 0.025785 19.6372 0.0254218ZM15.9794 13.8262C15.9794 14.6131 15.3391 15.253 14.5507 15.253L8.3514 15.2785C8.24971 15.2788 8.15239 15.322 8.08411 15.3972L5.08435 18.6973V15.6416C5.08435 15.4412 4.92201 15.2785 4.72118 15.2785H2.15358C1.3666 15.2785 0.726335 14.6382 0.726335 13.8516V6.17385C0.726335 5.38686 1.3666 4.7466 2.15431 4.7466L5.44751 4.7397C5.44788 4.7397 5.44788 4.7397 5.44824 4.7397L14.5521 4.72081C15.3391 4.72081 15.9794 5.36108 15.9794 6.14806V12.8452V13.8262ZM21.0637 9.85673C21.0637 10.6437 20.4235 11.2836 19.6365 11.2836H18.8847C18.6839 11.2836 18.5215 11.4463 18.5215 11.6468V14.7025L16.7057 12.7051V6.14843C16.7057 4.96087 15.7397 3.99484 14.5514 3.99484L5.81068 4.01264V2.15322C5.81068 1.36624 6.45094 0.725972 7.2372 0.725972L19.6361 0.751394C19.6365 0.751394 19.6365 0.751394 19.6368 0.751394C20.4238 0.751394 21.0641 1.39166 21.0641 2.17864V9.85673H21.0637Z" fill="black"/>
</svg>
