<svg width="11" height="6" viewBox="0 0 11 6" fill="none" xmlns="http://www.w3.org/2000/svg">
<path d="M9.49916 0.119084C9.5765 0.0427804 9.68078 0 9.78943 0C9.89808 0 10.0024 0.0427804 10.0797 0.119084C10.1178 0.156605 10.1481 0.201329 10.1687 0.250653C10.1894 0.299978 10.2 0.352918 10.2 0.406391C10.2 0.459865 10.1894 0.512804 10.1687 0.562129C10.1481 0.611453 10.1178 0.656178 10.0797 0.693699L5.39027 5.33687C5.31293 5.41318 5.20865 5.45596 5.1 5.45596C4.99135 5.45596 4.88707 5.41318 4.80973 5.33687L0.120297 0.693699C0.0821974 0.656178 0.0519407 0.611453 0.0312882 0.562129C0.0106357 0.512804 0 0.459865 0 0.406391C0 0.352918 0.0106357 0.299978 0.0312882 0.250653C0.0519407 0.201329 0.0821974 0.156605 0.120297 0.119084C0.197643 0.0427804 0.301922 0 0.41057 0C0.519218 0 0.623498 0.0427804 0.700843 0.119084L5.1003 4.35368L9.49916 0.119084Z" fill="black"/>
</svg>
