<svg width="18" height="20" viewBox="0 0 18 20" fill="none" xmlns="http://www.w3.org/2000/svg">
<path d="M0.98889 0H16.8C17.3445 0 17.7778 0.4875 17.7778 1.1V18.9C17.7778 19.5 17.3445 20 16.8 20H12.2667V12.25H14.5778L14.9222 9.2375H12.2667V7.3125C12.2667 6.4375 12.4889 5.8375 13.6 5.8375H15.0222V3.1375C14.7778 3.1 13.9333 3.025 12.9556 3.025C10.9 3.025 9.50001 4.425 9.50001 7.0125V9.2375H7.17778V12.25H9.50001V20H0.98889C0.728534 20 0.478675 19.8845 0.293538 19.6786C0.108402 19.4727 0.00292535 19.1929 0 18.9V1.1C0 0.4875 0.444445 0 0.98889 0Z" fill="white"/>
</svg>
