<svg width="294" height="692" viewBox="0 0 294 692" fill="none" xmlns="http://www.w3.org/2000/svg">
<g opacity="0.35">
<path fill-rule="evenodd" clip-rule="evenodd" d="M-240.374 257.628C-260.101 305.05 -275.114 355.882 -259.21 405.875C-241.134 462.696 -209.105 525.751 -147.283 550.256C-85.9673 574.561 -19.8987 541.625 42.6936 525.544C94.4974 512.234 150.49 501.719 183.807 465.19C215.386 430.567 202.983 380.305 214.922 336.715C228.444 287.345 281.124 241.474 258.301 193.215C235.574 145.16 160.489 140.046 109.219 113.208C54.9116 84.7802 9.58754 21.2175 -50.6604 31.485C-111.722 41.8912 -119.999 115.2 -156.287 158.456C-184.823 192.472 -223.764 217.699 -240.374 257.628Z" fill="url(#paint0_linear)" fill-opacity="0.7"/>
<path fill-rule="evenodd" clip-rule="evenodd" d="M-120.62 111.086C-175.16 115.057 -230.713 125.092 -270.801 163.857C-316.363 207.917 -361.246 268.088 -355.266 337.994C-349.335 407.328 -286.612 453.912 -241.596 505.237C-204.339 547.716 -167.758 595.47 -117.149 609.486C-69.1797 622.771 -27.176 587.176 20.019 577.69C73.4727 566.947 142.168 594.762 177.321 550.302C212.326 506.03 181.577 432.852 182.826 371.779C184.148 307.087 223.207 234.147 184.843 182.265C145.961 129.682 72.1881 156.755 13.7595 143.14C-32.188 132.433 -74.6962 107.743 -120.62 111.086Z" fill="url(#paint1_linear)"/>
</g>
<defs>
<linearGradient id="paint0_linear" x1="-251.446" y1="263.381" x2="242.199" y2="349.13" gradientUnits="userSpaceOnUse">
<stop stop-color="#AD1927"/>
<stop offset="1" stop-color="#F6B5CC"/>
</linearGradient>
<linearGradient id="paint1_linear" x1="-131.354" y1="103.391" x2="21.1307" y2="609.296" gradientUnits="userSpaceOnUse">
<stop stop-color="#AD1927"/>
<stop offset="1" stop-color="#F6B5CC"/>
</linearGradient>
</defs>
</svg>
