<svg width="255" height="692" viewBox="0 0 255 692" fill="none" xmlns="http://www.w3.org/2000/svg">
<g opacity="0.35">
<path fill-rule="evenodd" clip-rule="evenodd" d="M163.626 257.628C143.899 305.05 128.886 355.882 144.79 405.875C162.866 462.696 194.895 525.751 256.717 550.256C318.033 574.561 384.101 541.625 446.694 525.544C498.497 512.234 554.49 501.719 587.807 465.19C619.386 430.567 606.983 380.305 618.922 336.715C632.444 287.345 685.124 241.474 662.301 193.215C639.574 145.16 564.489 140.046 513.219 113.208C458.912 84.7802 413.588 21.2175 353.34 31.485C292.278 41.8912 284.001 115.2 247.713 158.456C219.177 192.472 180.236 217.699 163.626 257.628Z" fill="url(#paint0_linear)" fill-opacity="0.7"/>
<path fill-rule="evenodd" clip-rule="evenodd" d="M283.38 111.086C228.84 115.057 173.287 125.092 133.199 163.857C87.6365 207.917 42.7537 268.088 48.7341 337.994C54.6654 407.328 117.388 453.912 162.404 505.237C199.661 547.716 236.242 595.47 286.851 609.486C334.82 622.771 376.824 587.176 424.019 577.69C477.473 566.947 546.168 594.762 581.321 550.302C616.326 506.03 585.577 432.852 586.826 371.779C588.148 307.087 627.207 234.147 588.843 182.265C549.961 129.682 476.188 156.755 417.759 143.14C371.812 132.433 329.304 107.743 283.38 111.086Z" fill="url(#paint1_linear)"/>
</g>
<defs>
<linearGradient id="paint0_linear" x1="152.554" y1="263.381" x2="646.199" y2="349.13" gradientUnits="userSpaceOnUse">
<stop stop-color="#AD1927"/>
<stop offset="1" stop-color="#F6B5CC"/>
</linearGradient>
<linearGradient id="paint1_linear" x1="272.646" y1="103.391" x2="425.131" y2="609.296" gradientUnits="userSpaceOnUse">
<stop stop-color="#AD1927"/>
<stop offset="1" stop-color="#F6B5CC"/>
</linearGradient>
</defs>
</svg>
