<svg width="392" height="959" viewBox="0 0 392 959" fill="none" xmlns="http://www.w3.org/2000/svg">
<g opacity="0.35">
<path fill-rule="evenodd" clip-rule="evenodd" d="M-108.946 275.865C-159.64 284.111 -210.747 298.162 -244.837 338.038C-283.583 383.36 -320.268 443.825 -308.487 509.275C-296.803 574.189 -233.978 612.956 -187.307 657.657C-148.68 694.654 -110.218 736.682 -61.6122 745.727C-15.5412 754.301 20.6227 717.257 63.9548 704.414C113.033 689.869 179.788 710.438 208.756 665.597C237.602 620.946 202.351 554.453 198.117 496.739C193.632 435.605 223.737 363.576 183.242 317.8C142.2 271.407 75.5483 303.034 19.659 295.012C-24.2916 288.704 -66.2602 268.921 -108.946 275.865Z" fill="url(#paint0_linear)" fill-opacity="0.7"/>
<path fill-rule="evenodd" clip-rule="evenodd" d="M78.716 300.337C46.581 256.09 8.75931 214.181 -45.3173 200.563C-106.78 185.085 -181.574 178.682 -237.816 220.627C-293.598 262.229 -300.101 340.088 -319.971 405.401C-336.416 459.458 -357.7 515.722 -342.92 566.113C-328.912 613.876 -276.518 630.794 -243.57 665.891C-206.254 705.643 -193.661 778.678 -137.348 785.1C-81.2723 791.495 -35.3109 726.78 17.238 695.634C72.9007 662.643 155.472 657.365 179.323 597.409C203.496 536.644 141.589 488.239 122.345 431.416C107.212 386.73 105.774 337.593 78.716 300.337Z" fill="url(#paint1_linear)"/>
</g>
<defs>
<linearGradient id="paint0_linear" x1="-119.673" y1="269.491" x2="67.791" y2="734.137" gradientUnits="userSpaceOnUse">
<stop stop-color="#AD1927"/>
<stop offset="1" stop-color="#F6B5CC"/>
</linearGradient>
<linearGradient id="paint1_linear" x1="79.594" y1="287.158" x2="-269.838" y2="683.503" gradientUnits="userSpaceOnUse">
<stop stop-color="#AD1927"/>
<stop offset="1" stop-color="#F6B5CC"/>
</linearGradient>
</defs>
</svg>
