<svg width="42" height="29" viewBox="0 0 42 29" fill="none" xmlns="http://www.w3.org/2000/svg">
<path d="M0.0874023 0.240723L7.55078 0.240723L7.55078 1.55908L1.54492 1.55908L1.54492 4.82568L6.82568 4.82568L6.82568 6.10742L1.54492 6.10742L1.54492 11L0.0874023 11L0.0874023 0.240723ZM12.0552 10.1504C12.9292 10.1504 13.5273 9.8208 13.8496 9.16162C14.1768 8.49756 14.3403 7.76025 14.3403 6.94971C14.3403 6.21729 14.2231 5.62158 13.9888 5.1626C13.6177 4.43994 12.978 4.07861 12.0698 4.07861C11.2642 4.07861 10.6782 4.38623 10.312 5.00146C9.9458 5.6167 9.7627 6.35889 9.7627 7.22803C9.7627 8.06299 9.9458 8.75879 10.312 9.31543C10.6782 9.87207 11.2593 10.1504 12.0552 10.1504ZM12.1064 2.92871C13.1172 2.92871 13.9717 3.26562 14.6699 3.93945C15.3682 4.61328 15.7173 5.60449 15.7173 6.91309C15.7173 8.17773 15.4097 9.22266 14.7944 10.0479C14.1792 10.873 13.2246 11.2856 11.9307 11.2856C10.8516 11.2856 9.99463 10.9219 9.35986 10.1943C8.7251 9.46191 8.40771 8.48047 8.40771 7.25C8.40771 5.93164 8.74219 4.88184 9.41113 4.10059C10.0801 3.31934 10.9785 2.92871 12.1064 2.92871ZM17.3286 0.240723L18.647 0.240723L18.647 11L17.3286 11L17.3286 0.240723ZM20.6685 0.240723L21.9868 0.240723L21.9868 11L20.6685 11L20.6685 0.240723ZM27.0845 10.1504C27.9585 10.1504 28.5566 9.8208 28.8789 9.16162C29.2061 8.49756 29.3696 7.76025 29.3696 6.94971C29.3696 6.21729 29.2524 5.62158 29.0181 5.1626C28.647 4.43994 28.0073 4.07861 27.0991 4.07861C26.2935 4.07861 25.7075 4.38623 25.3413 5.00146C24.9751 5.6167 24.792 6.35889 24.792 7.22803C24.792 8.06299 24.9751 8.75879 25.3413 9.31543C25.7075 9.87207 26.2886 10.1504 27.0845 10.1504ZM27.1357 2.92871C28.1465 2.92871 29.001 3.26562 29.6992 3.93945C30.3975 4.61328 30.7466 5.60449 30.7466 6.91309C30.7466 8.17773 30.439 9.22266 29.8237 10.0479C29.2085 10.873 28.2539 11.2856 26.96 11.2856C25.8809 11.2856 25.0239 10.9219 24.3892 10.1943C23.7544 9.46191 23.437 8.48047 23.437 7.25C23.437 5.93164 23.7715 4.88184 24.4404 4.10059C25.1094 3.31934 26.0078 2.92871 27.1357 2.92871ZM32.9292 3.15576L34.438 9.3374L35.9688 3.15576L37.4482 3.15576L38.9863 9.30078L40.5903 3.15576L41.9087 3.15576L39.6309 11L38.2612 11L36.6646 4.92822L35.1191 11L33.7495 11L31.4863 3.15576L32.9292 3.15576ZM14.8604 20.1558L14.8604 25.3633C14.8604 25.7637 14.9238 26.0908 15.0508 26.3447C15.2852 26.8135 15.7222 27.0479 16.3618 27.0479C17.2798 27.0479 17.9048 26.6377 18.2368 25.8174C18.4175 25.3779 18.5078 24.7749 18.5078 24.0083L18.5078 20.1558L19.8262 20.1558L19.8262 28L18.5811 28L18.5957 26.8428C18.4248 27.1406 18.2124 27.3921 17.9585 27.5972C17.4556 28.0073 16.8452 28.2124 16.1274 28.2124C15.0093 28.2124 14.2476 27.8389 13.8423 27.0918C13.6226 26.6914 13.5127 26.1567 13.5127 25.4878L13.5127 20.1558L14.8604 20.1558ZM22.6753 25.5391C22.7144 25.9785 22.8242 26.3154 23.0049 26.5498C23.3369 26.9746 23.9131 27.187 24.7334 27.187C25.2217 27.187 25.6514 27.082 26.0225 26.8721C26.3936 26.6572 26.5791 26.3276 26.5791 25.8833C26.5791 25.5464 26.4302 25.29 26.1323 25.1143C25.9419 25.0068 25.5659 24.8823 25.0044 24.7407L23.957 24.4771C23.2881 24.311 22.7949 24.1255 22.4775 23.9204C21.9111 23.564 21.6279 23.0708 21.6279 22.4409C21.6279 21.6987 21.894 21.0981 22.4263 20.6392C22.9634 20.1802 23.6836 19.9507 24.5869 19.9507C25.7686 19.9507 26.6206 20.2974 27.1431 20.9907C27.4702 21.4302 27.6289 21.9038 27.6191 22.4116L26.374 22.4116C26.3496 22.1138 26.2446 21.8428 26.0591 21.5986C25.7563 21.252 25.2314 21.0786 24.4844 21.0786C23.9863 21.0786 23.6079 21.1738 23.3491 21.3643C23.0952 21.5547 22.9683 21.8062 22.9683 22.1187C22.9683 22.4604 23.1367 22.7339 23.4736 22.939C23.6689 23.061 23.957 23.1685 24.3379 23.2612L25.2095 23.4736C26.1567 23.7031 26.7915 23.9253 27.1138 24.1401C27.6265 24.4771 27.8828 25.0068 27.8828 25.7295C27.8828 26.4277 27.6167 27.0308 27.0845 27.5386C26.5571 28.0464 25.7515 28.3003 24.6675 28.3003C23.5005 28.3003 22.6729 28.0366 22.1846 27.5093C21.7012 26.9771 21.4424 26.3203 21.4082 25.5391L22.6753 25.5391Z" fill="#727272"/>
</svg>
