<svg width="20" height="20" viewBox="0 0 20 20" fill="none" xmlns="http://www.w3.org/2000/svg">
<path d="M17.7083 0H2.29167C1.0275 0 0 1.0275 0 2.29167V17.7083C0 18.9725 1.0275 20 2.29167 20H17.7083C18.9725 20 20 18.9725 20 17.7083V2.29167C20 1.0275 18.9725 0 17.7083 0ZM13.3333 14.1667H6.66667C6.20583 14.1667 5.83333 13.7933 5.83333 13.3333C5.83333 12.8733 6.20583 12.5 6.66667 12.5H13.3333C13.7942 12.5 14.1667 12.8733 14.1667 13.3333C14.1667 13.7933 13.7942 14.1667 13.3333 14.1667ZM13.3333 10.8333H6.66667C6.20583 10.8333 5.83333 10.46 5.83333 10C5.83333 9.54 6.20583 9.16667 6.66667 9.16667H13.3333C13.7942 9.16667 14.1667 9.54 14.1667 10C14.1667 10.46 13.7942 10.8333 13.3333 10.8333ZM13.3333 7.5H6.66667C6.20583 7.5 5.83333 7.12667 5.83333 6.66667C5.83333 6.20667 6.20583 5.83333 6.66667 5.83333H13.3333C13.7942 5.83333 14.1667 6.20667 14.1667 6.66667C14.1667 7.12667 13.7942 7.5 13.3333 7.5Z" fill="#AD1927"/>
</svg>
