<svg width="21" height="20" viewBox="0 0 21 20" fill="none" xmlns="http://www.w3.org/2000/svg">
<path d="M10.0312 6.66525C8.19495 6.66525 6.69644 8.16376 6.69644 10C6.69644 11.8362 8.19495 13.3348 10.0312 13.3348C11.8674 13.3348 13.3659 11.8362 13.3659 10C13.3659 8.16376 11.8674 6.66525 10.0312 6.66525ZM20.0329 10C20.0329 8.61907 20.0455 7.25064 19.9679 5.87221C19.8904 4.27113 19.5251 2.85017 18.3543 1.67938C17.181 0.506085 15.7626 0.14334 14.1615 0.065788C12.7805 -0.0117644 11.4121 0.000744113 10.0337 0.000744113C8.65276 0.000744113 7.28433 -0.0117644 5.9059 0.065788C4.30482 0.14334 2.88386 0.508587 1.71307 1.67938C0.539777 2.85267 0.177032 4.27113 0.0994794 5.87221C0.021927 7.25314 0.0344355 8.62157 0.0344355 10C0.0344355 11.3784 0.021927 12.7494 0.0994794 14.1278C0.177032 15.7289 0.542279 17.1498 1.71307 18.3206C2.88636 19.4939 4.30482 19.8567 5.9059 19.9342C7.28684 20.0118 8.65526 19.9993 10.0337 19.9993C11.4146 19.9993 12.783 20.0118 14.1615 19.9342C15.7626 19.8567 17.1835 19.4914 18.3543 18.3206C19.5276 17.1473 19.8904 15.7289 19.9679 14.1278C20.048 12.7494 20.0329 11.3809 20.0329 10ZM10.0312 15.131C7.19177 15.131 4.90022 12.8394 4.90022 10C4.90022 7.16058 7.19177 4.86903 10.0312 4.86903C12.8706 4.86903 15.1622 7.16058 15.1622 10C15.1622 12.8394 12.8706 15.131 10.0312 15.131ZM15.3723 5.8572C14.7094 5.8572 14.174 5.32184 14.174 4.65889C14.174 3.99594 14.7094 3.46058 15.3723 3.46058C16.0352 3.46058 16.5706 3.99594 16.5706 4.65889C16.5708 4.81631 16.5399 4.97222 16.4798 5.1177C16.4196 5.26317 16.3314 5.39535 16.2201 5.50666C16.1088 5.61798 15.9766 5.70624 15.8311 5.76639C15.6856 5.82654 15.5297 5.8574 15.3723 5.8572Z" fill="white"/>
</svg>
