<svg width="59" height="50" viewBox="0 0 59 50" fill="none" xmlns="http://www.w3.org/2000/svg">
<path d="M5.16151 45.6898C1.80311 41.6904 0 37.2048 0 29.9335C0 17.1383 8.01126 5.6701 19.6613 0L22.573 5.03766C11.699 11.6327 9.57308 20.1908 8.72533 25.5868C10.4763 24.5704 12.7685 24.2158 15.015 24.4498C20.8971 25.0603 25.5337 30.4745 25.5337 37.2048C25.5337 40.5983 24.3313 43.8528 22.1911 46.2524C20.051 48.6519 17.1483 50 14.1216 50C12.4478 49.9836 10.7936 49.5941 9.25538 48.8541C7.71712 48.1142 6.3255 47.0385 5.16151 45.6898ZM37.7674 45.6898C34.409 41.6904 32.6059 37.2048 32.6059 29.9335C32.6059 17.1383 40.6171 5.6701 52.2672 0L55.1789 5.03766C44.3049 11.6327 42.179 20.1908 41.3312 25.5868C43.0821 24.5704 45.3743 24.2158 47.6209 24.4498C53.503 25.0603 58.1395 30.4745 58.1395 37.2048C58.1395 40.5983 56.9372 43.8528 54.797 46.2524C52.6568 48.6519 49.7541 50 46.7275 50C45.0537 49.9836 43.3995 49.5941 41.8613 48.8541C40.323 48.1142 38.9314 47.0385 37.7674 45.6898Z" fill="#EBEBEB"/>
</svg>
