<svg width="59" height="50" viewBox="0 0 59 50" fill="none" xmlns="http://www.w3.org/2000/svg">
<path d="M53.8385 4.31016C57.1969 8.30957 59 12.7952 59 20.0665C59 32.8617 50.9887 44.3299 39.3387 50L36.427 44.9623C47.301 38.3673 49.4269 29.8092 50.2747 24.4132C48.5237 25.4296 46.2315 25.7842 43.985 25.5502C38.1029 24.9397 33.4663 19.5255 33.4663 12.7952C33.4663 9.4017 34.6687 6.14719 36.8089 3.74763C38.949 1.34806 41.8517 0 44.8784 0C46.5522 0.0163994 48.2064 0.405918 49.7446 1.14588C51.2829 1.88585 52.6745 2.96148 53.8385 4.31016ZM21.2326 4.31016C24.591 8.30957 26.3941 12.7952 26.3941 20.0665C26.3941 32.8617 18.3829 44.3299 6.73278 50L3.82108 44.9623C14.6951 38.3673 16.821 29.8092 17.6688 24.4132C15.9179 25.4296 13.6257 25.7842 11.3791 25.5502C5.49702 24.9397 0.860466 19.5255 0.860466 12.7952C0.860466 9.4017 2.0628 6.14719 4.20298 3.74763C6.34315 1.34806 9.24586 0 12.2725 0C13.9463 0.0163994 15.6005 0.405918 17.1387 1.14588C18.677 1.88585 20.0686 2.96148 21.2326 4.31016Z" fill="white"/>
</svg>
