<svg width="24" height="20" viewBox="0 0 24 20" fill="none" xmlns="http://www.w3.org/2000/svg">
<path d="M2.05763 18.2759C0.718807 16.6762 0 14.8819 0 11.9734C0 6.8553 3.19368 2.26804 7.83798 0L8.99873 2.01506C4.66379 4.65307 3.8163 8.07633 3.47835 10.2347C4.17636 9.82818 5.09014 9.68633 5.98572 9.77992C8.33061 10.0241 10.179 12.1898 10.179 14.8819C10.179 16.2393 9.69966 17.5411 8.84648 18.5009C7.9933 19.4608 6.83614 20 5.62957 20C4.96231 19.9934 4.30287 19.8376 3.68965 19.5416C3.07642 19.2457 2.52165 18.8154 2.05763 18.2759ZM15.0559 18.2759C13.7171 16.6762 12.9983 14.8819 12.9983 11.9734C12.9983 6.8553 16.192 2.26804 20.8363 0L21.997 2.01506C17.6621 4.65307 16.8146 8.07633 16.4767 10.2347C17.1747 9.82818 18.0884 9.68633 18.984 9.77992C21.3289 10.0241 23.1773 12.1898 23.1773 14.8819C23.1773 16.2393 22.698 17.5411 21.8448 18.5009C20.9916 19.4608 19.8344 20 18.6279 20C17.9606 19.9934 17.3012 19.8376 16.688 19.5416C16.0747 19.2457 15.52 18.8154 15.0559 18.2759Z" fill="#AD1927"/>
</svg>
