<svg width="557" height="692" viewBox="0 0 557 692" fill="none" xmlns="http://www.w3.org/2000/svg">
<path fill-rule="evenodd" clip-rule="evenodd" d="M21.9697 257.628C2.24297 305.05 -12.7699 355.882 3.13381 405.875C21.2099 462.696 53.2383 525.751 115.06 550.256C176.376 574.561 242.445 541.625 305.037 525.544C356.841 512.234 412.833 501.719 446.151 465.19C477.73 430.567 465.326 380.305 477.266 336.715C490.788 287.345 543.468 241.474 520.645 193.215C497.918 145.16 422.833 140.046 371.563 113.208C317.255 84.7802 271.931 21.2175 211.683 31.485C150.622 41.8912 142.345 115.2 106.057 158.456C77.5204 192.472 38.5799 217.699 21.9697 257.628Z" fill="url(#paint0_linear)" fill-opacity="0.7"/>
<path fill-rule="evenodd" clip-rule="evenodd" d="M141.724 111.086C87.1839 115.057 31.6303 125.092 -8.45687 163.857C-54.0197 207.917 -98.9025 268.088 -92.9222 337.994C-86.9908 407.328 -24.2681 453.912 20.7476 505.237C58.0044 547.716 94.5857 595.47 145.195 609.486C193.164 622.771 235.168 587.176 282.363 577.69C335.816 566.947 404.512 594.762 439.665 550.302C474.669 506.03 443.921 432.852 445.169 371.779C446.492 307.087 485.551 234.147 447.187 182.265C408.305 129.682 334.532 156.755 276.103 143.14C230.156 132.433 187.648 107.743 141.724 111.086Z" fill="url(#paint1_linear)"/>
<defs>
<linearGradient id="paint0_linear" x1="10.8977" y1="263.381" x2="504.543" y2="349.13" gradientUnits="userSpaceOnUse">
<stop stop-color="#AD1927"/>
<stop offset="1" stop-color="#F6B5CC"/>
</linearGradient>
<linearGradient id="paint1_linear" x1="130.99" y1="103.391" x2="283.474" y2="609.296" gradientUnits="userSpaceOnUse">
<stop stop-color="#AD1927"/>
<stop offset="1" stop-color="#F6B5CC"/>
</linearGradient>
</defs>
</svg>
