<svg width="55" height="55" viewBox="0 0 55 55" fill="none" xmlns="http://www.w3.org/2000/svg">
<g filter="url(#filter0_d)">
<g filter="url(#filter1_b)">
<path d="M27.5 10C37.165 10 45 17.835 45 27.5C45 37.1648 37.165 45 27.5 45C17.835 45 10 37.1648 10 27.5C10 17.835 17.835 10 27.5 10ZM22.1674 28.6852C22.2527 28.7705 22.3463 28.8426 22.4437 28.9052L29.0114 35.473C29.3304 35.7922 29.7485 35.9517 30.1667 35.9517C30.5848 35.9517 31.0027 35.7922 31.3219 35.473C31.9601 34.8348 31.9601 33.8 31.3219 33.1621L25.6625 27.5019L31.2934 21.8709C31.9316 21.2324 31.9316 20.198 31.2934 19.56C30.6552 18.9219 29.6206 18.9222 28.9825 19.5597L22.4438 26.098C22.3464 26.1607 22.2528 26.2327 22.1679 26.3181C21.8417 26.6443 21.6843 27.0739 21.6916 27.5018C21.6839 27.9293 21.841 28.3588 22.1674 28.6852Z" fill="white" fill-opacity="0.3"/>
</g>
</g>
<defs>
<filter id="filter0_d" x="0" y="0" width="55" height="55" filterUnits="userSpaceOnUse" color-interpolation-filters="sRGB">
<feFlood flood-opacity="0" result="BackgroundImageFix"/>
<feColorMatrix in="SourceAlpha" type="matrix" values="0 0 0 0 0 0 0 0 0 0 0 0 0 0 0 0 0 0 127 0"/>
<feOffset/>
<feGaussianBlur stdDeviation="5"/>
<feColorMatrix type="matrix" values="0 0 0 0 0.678431 0 0 0 0 0.0980392 0 0 0 0 0.152941 0 0 0 0.25 0"/>
<feBlend mode="normal" in2="BackgroundImageFix" result="effect1_dropShadow"/>
<feBlend mode="normal" in="SourceGraphic" in2="effect1_dropShadow" result="shape"/>
</filter>
<filter id="filter1_b" x="6" y="6" width="43" height="43" filterUnits="userSpaceOnUse" color-interpolation-filters="sRGB">
<feFlood flood-opacity="0" result="BackgroundImageFix"/>
<feGaussianBlur in="BackgroundImage" stdDeviation="2"/>
<feComposite in2="SourceAlpha" operator="in" result="effect1_backgroundBlur"/>
<feBlend mode="normal" in="SourceGraphic" in2="effect1_backgroundBlur" result="shape"/>
</filter>
</defs>
</svg>
