<svg width="20" height="20" viewBox="0 0 20 20" fill="none" xmlns="http://www.w3.org/2000/svg">
<path d="M15.7283 0H3.86773C3.03258 0 2.23742 0.261992 1.56812 0.757578C1.43762 0.854219 1.41016 1.03836 1.5068 1.16887C1.60344 1.29938 1.78758 1.32676 1.91809 1.2302C2.48535 0.810117 3.15953 0.588047 3.86773 0.588047H15.7282C17.5367 0.588047 19.0079 2.05934 19.0079 3.86773V11.6468C19.0079 13.4552 17.5366 14.9265 15.7282 14.9265H10.7152C10.5941 14.9265 10.477 14.9771 10.3942 15.0653L6.36812 19.3461C6.28121 19.4385 6.18043 19.4123 6.14117 19.3968C6.10187 19.3812 6.01051 19.3313 6.01051 19.2044V15.3672C6.01051 15.1242 5.81285 14.9266 5.56988 14.9266H3.86773C2.0593 14.9266 0.588008 13.4553 0.588008 11.6469V3.86773C0.588008 3.20242 0.786016 2.56191 1.16066 2.01551C1.25246 1.88156 1.21836 1.69859 1.08445 1.60676C0.950586 1.51492 0.7675 1.5491 0.675703 1.68297C0.233672 2.32773 0 3.0832 0 3.86773V11.6468C0 13.7795 1.73508 15.5145 3.86777 15.5145H5.4225V19.2044C5.4225 19.5325 5.61953 19.8225 5.92449 19.9434C6.02062 19.9815 6.12047 20 6.21914 20C6.43355 20 6.64258 19.9126 6.79648 19.749L10.7789 15.5146H15.7283C17.8609 15.5146 19.596 13.7795 19.596 11.6468V3.86773C19.596 1.73508 17.861 0 15.7283 0Z" fill="black"/>
<path d="M14.0217 4.72397C13.0012 3.70346 11.3407 3.70354 10.3201 4.72397L9.80765 5.23647C9.80628 5.23784 9.80206 5.24206 9.79421 5.24206C9.7864 5.24206 9.78222 5.23791 9.78085 5.23647L9.27651 4.73217C8.25601 3.71167 6.59546 3.7117 5.57495 4.73217C4.55444 5.75268 4.55444 7.41327 5.57495 8.43377L9.36538 12.2242C9.48003 12.3389 9.63245 12.402 9.79456 12.402C9.95667 12.402 10.1091 12.3388 10.2237 12.2242L12.3067 10.1408C12.4216 10.026 12.4216 9.83979 12.3067 9.72502C12.1919 9.61022 12.0057 9.61018 11.8909 9.72506L9.80792 11.8084C9.80655 11.8098 9.80233 11.8139 9.79456 11.8139C9.78671 11.8139 9.78253 11.8098 9.78116 11.8083L5.99073 8.01791C5.19948 7.22663 5.19948 5.9392 5.99073 5.14791C6.78198 4.35663 8.06944 4.3567 8.86069 5.14791L9.36499 5.65221C9.47964 5.76686 9.63206 5.83002 9.79417 5.83002C9.95632 5.83002 10.1087 5.7669 10.2234 5.65225L10.7359 5.13975C11.5273 4.34854 12.8146 4.34854 13.6059 5.13975C14.3971 5.931 14.3971 7.21842 13.6059 8.00975L12.7281 8.88776C12.6132 9.0026 12.6132 9.18877 12.7281 9.30354C12.843 9.41834 13.0291 9.41838 13.1439 9.3035L14.0217 8.42553C15.0422 7.40503 15.0422 5.74448 14.0217 4.72397Z" fill="black"/>
</svg>
