<svg width="20" height="20" viewBox="0 0 20 20" fill="none" xmlns="http://www.w3.org/2000/svg">
<path d="M15.7283 0H3.86773C3.03258 0 2.23742 0.261992 1.56812 0.757578C1.43762 0.854219 1.41016 1.03836 1.5068 1.16887C1.60344 1.29938 1.78758 1.32676 1.91809 1.2302C2.48535 0.810117 3.15953 0.588047 3.86773 0.588047H15.7282C17.5367 0.588047 19.0079 2.05934 19.0079 3.86773V11.6468C19.0079 13.4552 17.5366 14.9265 15.7282 14.9265H10.7152C10.5941 14.9265 10.477 14.9771 10.3942 15.0653L6.36812 19.3461C6.28121 19.4385 6.18043 19.4123 6.14117 19.3968C6.10187 19.3812 6.01051 19.3313 6.01051 19.2044V15.3672C6.01051 15.1242 5.81285 14.9266 5.56988 14.9266H3.86773C2.0593 14.9266 0.588008 13.4553 0.588008 11.6469V3.86773C0.588008 3.20242 0.786016 2.56191 1.16066 2.01551C1.25246 1.88156 1.21836 1.69859 1.08445 1.60676C0.950586 1.51492 0.7675 1.5491 0.675703 1.68297C0.233672 2.32773 0 3.0832 0 3.86773V11.6468C0 13.7795 1.73508 15.5145 3.86777 15.5145H5.4225V19.2044C5.4225 19.5325 5.61953 19.8225 5.92449 19.9434C6.02062 19.9815 6.12047 20 6.21914 20C6.43355 20 6.64258 19.9126 6.79648 19.749L10.7789 15.5146H15.7283C17.8609 15.5146 19.596 13.7795 19.596 11.6468V3.86773C19.596 1.73508 17.861 0 15.7283 0Z" fill="white"/>
<path d="M14.0217 4.72385C13.0012 3.70334 11.3407 3.70342 10.3201 4.72385L9.80765 5.23635C9.80628 5.23771 9.80206 5.24193 9.79421 5.24193C9.7864 5.24193 9.78222 5.23779 9.78085 5.23635L9.27651 4.73205C8.25601 3.71154 6.59546 3.71158 5.57495 4.73205C4.55444 5.75256 4.55444 7.41315 5.57495 8.43365L9.36538 12.2241C9.48003 12.3387 9.63245 12.4019 9.79456 12.4019C9.95667 12.4019 10.1091 12.3387 10.2237 12.224L12.3067 10.1407C12.4216 10.0258 12.4216 9.83967 12.3067 9.7249C12.1919 9.6101 12.0057 9.61006 11.8909 9.72494L9.80792 11.8083C9.80655 11.8097 9.80233 11.8138 9.79456 11.8138C9.78671 11.8138 9.78253 11.8097 9.78116 11.8082L5.99073 8.01779C5.19948 7.2265 5.19948 5.93908 5.99073 5.14779C6.78198 4.3565 8.06944 4.35658 8.86069 5.14779L9.36499 5.65209C9.47964 5.76674 9.63206 5.8299 9.79417 5.8299C9.95632 5.8299 10.1087 5.76678 10.2234 5.65213L10.7359 5.13963C11.5273 4.34842 12.8146 4.34842 13.6059 5.13963C14.3971 5.93088 14.3971 7.2183 13.6059 8.00963L12.7281 8.88764C12.6132 9.00248 12.6132 9.18865 12.7281 9.30342C12.843 9.41822 13.0291 9.41826 13.1439 9.30338L14.0217 8.42541C15.0422 7.4049 15.0422 5.74436 14.0217 4.72385Z" fill="white"/>
</svg>
