<svg width="19" height="20" viewBox="0 0 19 20" fill="none" xmlns="http://www.w3.org/2000/svg">
<path d="M16.9116 0H2.07471C1.264 0 0.555664 0.65625 0.555664 1.55759V18.2862C0.555664 19.1924 1.264 20 2.07471 20H16.9072C17.7223 20 18.3334 19.1871 18.3334 18.2862V1.55759C18.3381 0.65625 17.7223 0 16.9116 0ZM6.06636 16.671H3.51954V7.7625H6.06636V16.671ZM4.88105 6.40804H4.86279C4.04772 6.40804 3.51994 5.72545 3.51994 4.87098C3.51994 4.00089 4.06161 3.33438 4.89494 3.33438C5.72827 3.33438 6.23819 3.99598 6.25644 4.87098C6.25604 5.72545 5.72827 6.40804 4.88105 6.40804ZM15.3743 16.671H12.8275V11.8C12.8275 10.633 12.4568 9.83572 11.5354 9.83572C10.8314 9.83572 10.4148 10.3714 10.2294 10.8933C10.16 11.0808 10.1413 11.3362 10.1413 11.5969V16.671H7.59453V7.7625H10.1413V9.00223C10.512 8.40848 11.0909 7.55402 12.4382 7.55402C14.11 7.55402 15.3747 8.79375 15.3747 11.4665L15.3743 16.671Z" fill="white"/>
</svg>
