<svg width="24" height="34" viewBox="0 0 24 34" fill="none" xmlns="http://www.w3.org/2000/svg">
<path d="M11.664 0C5.22923 0 0 5.22936 0 11.664C0 13.8413 0.602769 15.9603 1.74966 17.7877L10.8733 32.7185C11.029 32.9712 11.2622 33.1268 11.5345 33.1657C11.9037 33.2239 12.3121 33.0685 12.5259 32.6991L21.6757 17.6321C22.7642 15.8437 23.328 13.7636 23.328 11.664C23.328 5.22936 18.0988 0 11.664 0ZM11.664 17.496C8.39821 17.496 5.832 14.8522 5.832 11.664C5.832 8.45633 8.45633 5.832 11.664 5.832C14.8717 5.832 17.496 8.45633 17.496 11.664C17.496 14.8327 14.9687 17.496 11.664 17.496Z" fill="#F41D31"/>
<path d="M11.664 0V5.832C14.8716 5.832 17.496 8.45633 17.496 11.664C17.496 14.8327 14.9687 17.496 11.664 17.496V33.177C11.9957 33.1847 12.3368 33.0257 12.5258 32.6991L21.6756 17.6321C22.7641 15.8437 23.328 13.7636 23.328 11.664C23.328 5.22936 18.0987 0 11.664 0Z" fill="#AD1927"/>
</svg>
