<svg width="50" height="50" viewBox="0 0 50 50" fill="none" xmlns="http://www.w3.org/2000/svg">
<path d="M25 50C38.8071 50 50 38.8071 50 25C50 11.1929 38.8071 0 25 0C11.1929 0 0 11.1929 0 25C0 38.8071 11.1929 50 25 50Z" fill="#DC4E41"/>
<path d="M8.7036 26.1195C8.61491 30.4209 11.5776 34.5258 15.653 35.8645C19.4919 37.1543 24.2117 36.1894 26.7662 32.9019C28.6312 30.5983 29.055 27.5273 28.8532 24.6583C25.5656 24.6288 22.2781 24.6387 18.9954 24.6436C18.9901 25.8147 18.9954 26.9814 19.0003 28.1526C20.9687 28.207 22.9376 28.182 24.906 28.2217C24.4091 29.9245 23.2772 31.5092 21.5592 32.1242C18.2423 33.5859 14.0099 31.6763 12.9662 28.1967C11.7064 24.8646 13.7688 20.8435 17.174 19.8742C19.2855 19.1313 21.4607 19.9678 23.2674 21.0654C24.1828 20.2089 25.0393 19.2935 25.8807 18.3684C23.828 16.6508 21.1902 15.5978 18.4785 15.8291C13.1579 15.8924 8.50172 20.8043 8.7036 26.1195Z" fill="#DC4E41"/>
<path d="M35.2532 21.6895C35.2434 22.669 35.2331 23.6534 35.2282 24.6325C34.2438 24.6423 33.2647 24.6472 32.2852 24.6521C32.2852 25.6317 32.2852 26.6058 32.2852 27.5854C33.2647 27.5903 34.2491 27.5952 35.2282 27.6054C35.238 28.585 35.238 29.5641 35.2478 30.5485C36.2225 30.5485 37.202 30.5436 38.1811 30.5485C38.1864 29.5641 38.1909 28.585 38.2011 27.6005C39.1802 27.5956 40.1647 27.5907 41.1442 27.5858C41.1442 26.6063 41.1442 25.6321 41.1442 24.6526C40.1651 24.6477 39.1807 24.6428 38.2011 24.633C38.1958 23.6534 38.1864 22.669 38.1811 21.6899C37.202 21.6895 36.2274 21.6895 35.2532 21.6895Z" fill="#DC4E41"/>
<path d="M8.7036 26.119C8.50172 20.8038 13.1574 15.8918 18.478 15.8281C21.1898 15.5968 23.828 16.6499 25.8802 18.3674C25.0384 19.293 24.1819 20.2079 23.2669 21.0645C21.4603 19.9668 19.2851 19.1303 17.1736 19.8732C13.7679 20.843 11.7055 24.8641 12.9658 28.1957C14.0095 31.6754 18.2418 33.585 21.5588 32.1232C23.2763 31.5082 24.4087 29.9235 24.9056 28.2207C22.9372 28.1815 20.9683 28.206 18.9999 28.1516C18.995 26.9805 18.9901 25.8137 18.995 24.6426C22.2776 24.6377 25.5652 24.6279 28.8527 24.6573C29.0546 27.5268 28.6312 30.5978 26.7657 32.9009C24.2113 36.1884 19.4919 37.1533 15.6526 35.8636C11.578 34.5253 8.61491 30.4204 8.7036 26.119Z" fill="white"/>
<path d="M35.2532 21.6895C36.2278 21.6895 37.202 21.6895 38.1811 21.6895C38.1864 22.669 38.1958 23.6534 38.2011 24.6325C39.1802 24.6423 40.1647 24.6472 41.1442 24.6521C41.1442 25.6317 41.1442 26.6058 41.1442 27.5854C40.1651 27.5903 39.1807 27.5952 38.2011 27.6001C38.1913 28.5845 38.1864 29.5636 38.1811 30.5481C37.202 30.5432 36.222 30.5481 35.2478 30.5481C35.2385 29.5636 35.2385 28.5845 35.2282 27.605C34.2491 27.5947 33.2647 27.5903 32.2852 27.5849C32.2852 26.6054 32.2852 25.6312 32.2852 24.6517C33.2647 24.6468 34.2442 24.6419 35.2282 24.6321C35.2331 23.6534 35.2429 22.669 35.2532 21.6895Z" fill="white"/>
</svg>
