<svg width="50" height="50" viewBox="0 0 50 50" fill="none" xmlns="http://www.w3.org/2000/svg">
<path d="M25 50C38.8071 50 50 38.8071 50 25C50 11.1929 38.8071 0 25 0C11.1929 0 0 11.1929 0 25C0 38.8071 11.1929 50 25 50Z" fill="#007AB9"/>
<path d="M39.9369 27.0116V37.3186H33.9612V27.7023C33.9612 25.2878 33.0985 23.6389 30.9348 23.6389C29.2837 23.6389 28.3028 24.749 27.8697 25.8239C27.7123 26.2081 27.6718 26.7415 27.6718 27.2803V37.3181H21.6956C21.6956 37.3181 21.7759 21.0314 21.6956 19.3455H27.6722V21.8924C27.6602 21.9125 27.6433 21.9321 27.6326 21.9512H27.6722V21.8924C28.4664 20.6705 29.8827 18.9235 33.0579 18.9235C36.9894 18.9235 39.9369 21.4922 39.9369 27.0116ZM15.4441 10.6821C13.3999 10.6821 12.0625 12.024 12.0625 13.787C12.0625 15.5125 13.3611 16.8931 15.3656 16.8931H15.4044C17.4887 16.8931 18.7847 15.5125 18.7847 13.787C18.745 12.024 17.4887 10.6821 15.4441 10.6821ZM12.4177 37.3186H18.3916V19.3455H12.4177V37.3186Z" fill="#F1F2F2"/>
</svg>
