<svg width="24" height="24" viewBox="0 0 24 24" fill="none" xmlns="http://www.w3.org/2000/svg">
<circle cx="12" cy="12" r="12" fill="#AF444E"/>
<path d="M18.9634 10.2898C18.8712 9.99399 18.6198 9.78455 18.3235 9.75658L14.2821 9.37371L12.6849 5.4717C12.567 5.18502 12.2987 5 12 5C11.7014 5 11.4329 5.18502 11.3158 5.4717L9.71859 9.37371L5.67656 9.75658C5.38026 9.78511 5.12936 9.99455 5.03665 10.2898C4.94447 10.5856 5.0296 10.9101 5.25369 11.1152L8.30865 13.9105L7.4079 18.0504C7.34199 18.3548 7.45522 18.6695 7.69725 18.8521C7.82735 18.9507 7.9802 19 8.13359 19C8.26539 19 8.39731 18.9634 8.51512 18.8899L12 16.7155L15.4843 18.8899C15.7399 19.0493 16.0613 19.0347 16.3028 18.8521C16.5448 18.6695 16.658 18.3548 16.5921 18.0504L15.6914 13.9105L18.7463 11.1152C18.9703 10.9101 19.0556 10.5863 18.9634 10.2898Z" fill="white"/>
</svg>
