<svg width="65" height="65" viewBox="0 0 65 65" fill="none" xmlns="http://www.w3.org/2000/svg">
<rect x="19" y="19" width="29" height="29" fill="white"/>
<path d="M32.5 0C14.5525 0 0 14.5525 0 32.5C0 50.4475 14.5525 65 32.5 65C50.4475 65 65 50.4475 65 32.5C65 14.5525 50.4475 0 32.5 0ZM42.9537 33.0006L27.1099 44.5279C27.0231 44.5903 26.9207 44.6276 26.814 44.6356C26.7074 44.6436 26.6006 44.6221 26.5053 44.5733C26.4101 44.5246 26.3302 44.4506 26.2743 44.3594C26.2184 44.2682 26.1888 44.1633 26.1886 44.0564V21.0162C26.1883 20.909 26.2176 20.8038 26.2734 20.7123C26.3291 20.6208 26.4091 20.5465 26.5046 20.4977C26.6 20.4488 26.707 20.4274 26.8139 20.4357C26.9207 20.444 27.0232 20.4817 27.1099 20.5446L42.9537 32.0647C43.0285 32.1177 43.0896 32.1878 43.1317 32.2692C43.1739 32.3506 43.1959 32.441 43.1959 32.5326C43.1959 32.6243 43.1739 32.7147 43.1317 32.7961C43.0896 32.8775 43.0285 32.9476 42.9537 33.0006Z" fill="black"/>
</svg>
