<svg width="186" height="186" viewBox="0 0 186 186" fill="none" xmlns="http://www.w3.org/2000/svg">
<circle cx="92.928" cy="92.7781" r="92.493" fill="#989898" fill-opacity="0.65"/>
<rect x="82.3735" y="82.2246" width="22.6737" height="22.6737" fill="#989898"/>
<path d="M92.9282 67.3682C78.8959 67.3682 67.5181 78.746 67.5181 92.7783C67.5181 106.811 78.8959 118.188 92.9282 118.188C106.961 118.188 118.338 106.811 118.338 92.7783C118.338 78.746 106.961 67.3682 92.9282 67.3682ZM101.101 93.1697L88.714 102.182C88.6461 102.231 88.566 102.26 88.4826 102.267C88.3992 102.273 88.3157 102.256 88.2413 102.218C88.1669 102.18 88.1044 102.122 88.0607 102.051C88.017 101.979 87.9938 101.897 87.9937 101.814V83.7997C87.9934 83.7159 88.0163 83.6337 88.0599 83.5621C88.1035 83.4905 88.1661 83.4325 88.2407 83.3943C88.3153 83.3561 88.399 83.3393 88.4825 83.3458C88.5661 83.3523 88.6462 83.3818 88.714 83.431L101.101 92.438C101.16 92.4794 101.208 92.5342 101.241 92.5979C101.274 92.6615 101.291 92.7322 101.291 92.8038C101.291 92.8755 101.274 92.9462 101.241 93.0098C101.208 93.0735 101.16 93.1283 101.101 93.1697Z" fill="white"/>
</svg>
