<svg width="56" height="56" viewBox="0 0 56 56" fill="none" xmlns="http://www.w3.org/2000/svg">
<circle cx="28" cy="28" r="28" fill="white"/>
<circle cx="28" cy="28" r="27.5" stroke="black" stroke-opacity="0.1"/>
<path d="M27.664 11C21.2292 11 16 16.2294 16 22.664C16 24.8413 16.6028 26.9603 17.7497 28.7877L26.8733 43.7185C27.029 43.9712 27.2622 44.1268 27.5345 44.1657C27.9037 44.2239 28.3121 44.0685 28.5259 43.6991L37.6757 28.6321C38.7642 26.8437 39.328 24.7636 39.328 22.664C39.328 16.2294 34.0988 11 27.664 11ZM27.664 28.496C24.3982 28.496 21.832 25.8522 21.832 22.664C21.832 19.4563 24.4563 16.832 27.664 16.832C30.8717 16.832 33.496 19.4563 33.496 22.664C33.496 25.8327 30.9687 28.496 27.664 28.496Z" fill="#F41D31"/>
<path d="M27.6641 11V16.832C30.8717 16.832 33.4961 19.4563 33.4961 22.664C33.4961 25.8327 30.9688 28.496 27.6641 28.496V44.177C27.9958 44.1847 28.3369 44.0257 28.5259 43.6991L37.6757 28.6321C38.7642 26.8437 39.3281 24.7636 39.3281 22.664C39.3281 16.2294 34.0988 11 27.6641 11Z" fill="#AD1927"/>
</svg>
