<svg width="15" height="15" viewBox="0 0 15 15" fill="none" xmlns="http://www.w3.org/2000/svg">
<g clip-path="url(#clip0)">
<path d="M7.42658 14.9265C11.5282 14.9265 14.8532 11.6016 14.8532 7.49999C14.8532 3.39841 11.5282 0.0734253 7.42658 0.0734253C3.32499 0.0734253 0 3.39841 0 7.49999C0 11.6016 3.32499 14.9265 7.42658 14.9265Z" fill="#3DB39E"/>
<path d="M14.4885 5.20103C14.2781 4.55448 13.9823 3.94699 13.6132 3.39191L7.1124 10.1629L7.12548 10.9164L7.43235 10.9144L14.4885 5.20103Z" fill="#37A18E"/>
<path d="M14.8644 2.99686L13.5401 1.68845C13.3594 1.50978 13.0662 1.50978 12.8854 1.68845L7.22442 7.5195L4.78316 5.10734C4.60211 4.92867 4.30919 4.92867 4.12829 5.10734L2.95445 6.26722C2.77369 6.44575 2.77369 6.73539 2.95445 6.91391L6.87256 10.7848C6.97697 10.888 7.11854 10.9296 7.25459 10.9136C7.39065 10.9295 7.53219 10.888 7.63663 10.7848L14.8645 3.6437C15.0452 3.46502 15.0452 3.17553 14.8644 2.99686Z" fill="#F8F8F8"/>
<path d="M7.63665 10.7848L14.8645 3.64373C15.0452 3.46506 15.0452 3.17557 14.8645 2.99687L14.6484 2.78326L7.21334 10.0962L3.11863 6.10489L2.95466 6.26708C2.7739 6.44561 2.7739 6.73525 2.95466 6.91377L6.87259 10.7848C6.977 10.888 7.11856 10.9296 7.25462 10.9136C7.39068 10.9296 7.53222 10.8882 7.63665 10.7848Z" fill="#EBEBEB"/>
</g>
<defs>
<clipPath id="clip0">
<rect width="15" height="15" fill="white"/>
</clipPath>
</defs>
</svg>
