<svg width="30" height="30" viewBox="0 0 30 30" fill="none" xmlns="http://www.w3.org/2000/svg">
<rect width="30" height="30" rx="3" fill="white"/>
<path d="M14.9388 19.0542C14.3272 19.0542 13.8145 19.5669 13.8145 20.1786C13.8145 20.7902 14.3272 21.3029 14.9388 21.3029C15.528 21.3029 16.0632 20.7902 16.0362 20.2055C16.0632 19.5624 15.555 19.0542 14.9388 19.0542Z" fill="#C1535D"/>
<path d="M25.3459 23.0391C26.052 21.8203 26.0565 20.3677 25.3549 19.1534L18.3119 6.95638C17.6148 5.72858 16.3555 5 14.9434 5C13.5312 5 12.2719 5.73308 11.5748 6.95188L4.52285 19.1624C3.82125 20.3902 3.82575 21.8518 4.53634 23.0706C5.23793 24.2759 6.49271 25 7.89591 25H21.9638C23.3715 25 24.6353 24.2669 25.3459 23.0391ZM23.8168 22.1576C23.4255 22.8322 22.7329 23.2325 21.9593 23.2325H7.89141C7.12685 23.2325 6.43874 22.8412 6.05646 22.1801C5.66969 21.51 5.66519 20.7095 6.05197 20.0349L13.1039 7.82887C13.4862 7.15876 14.1698 6.76299 14.9434 6.76299C15.7124 6.76299 16.4005 7.16326 16.7828 7.83337L23.8302 20.0394C24.208 20.696 24.2035 21.4875 23.8168 22.1576Z" fill="#C1535D"/>
<path d="M14.661 11.1616C14.1258 11.3145 13.793 11.8003 13.793 12.3894C13.82 12.7447 13.8424 13.1045 13.8694 13.4598C13.9459 14.8135 14.0223 16.1403 14.0988 17.494C14.1258 17.9527 14.4811 18.2855 14.9398 18.2855C15.3985 18.2855 15.7583 17.9302 15.7808 17.467C15.7808 17.1882 15.7808 16.9318 15.8078 16.6485C15.8573 15.7805 15.9112 14.9125 15.9607 14.0445C15.9877 13.4823 16.0372 12.9201 16.0642 12.3579C16.0642 12.1556 16.0372 11.9757 15.9607 11.7958C15.7314 11.292 15.1962 11.0357 14.661 11.1616Z" fill="#C1535D"/>
</svg>
