<svg width="22" height="20" viewBox="0 0 22 20" fill="none" xmlns="http://www.w3.org/2000/svg">
<path d="M10.9388 14.0544C10.3272 14.0544 9.81445 14.5671 9.81445 15.1788C9.81445 15.7904 10.3272 16.3032 10.9388 16.3032C11.528 16.3032 12.0632 15.7904 12.0362 15.2058C12.0632 14.5627 11.555 14.0544 10.9388 14.0544Z" fill="#C1535D"/>
<path d="M21.3459 18.0391C22.052 16.8203 22.0565 15.3677 21.3549 14.1534L14.3119 1.95638C13.6148 0.728581 12.3555 0 10.9434 0C9.53117 0 8.27189 0.733078 7.57479 1.95188L0.522846 14.1624C-0.178751 15.3902 -0.174253 16.8518 0.536338 18.0706C1.23793 19.2759 2.49271 20 3.89591 20H17.9638C19.3715 20 20.6353 19.2669 21.3459 18.0391ZM19.8168 17.1576C19.4255 17.8322 18.7329 18.2325 17.9593 18.2325H3.89141C3.12685 18.2325 2.43874 17.8412 2.05646 17.1801C1.66969 16.51 1.66519 15.7095 2.05197 15.0349L9.10391 2.82887C9.48619 2.15876 10.1698 1.76299 10.9434 1.76299C11.7124 1.76299 12.4005 2.16326 12.7828 2.83337L19.8302 15.0394C20.208 15.696 20.2035 16.4875 19.8168 17.1576Z" fill="#C1535D"/>
<path d="M10.66 6.16138C10.1248 6.31429 9.79199 6.80001 9.79199 7.38918C9.81898 7.74447 9.84146 8.10426 9.86845 8.45956C9.9449 9.81328 10.0214 11.14 10.0978 12.4937C10.1248 12.9525 10.4801 13.2853 10.9388 13.2853C11.3976 13.2853 11.7574 12.93 11.7798 12.4668C11.7798 12.1879 11.7798 11.9316 11.8068 11.6482C11.8563 10.7802 11.9103 9.91222 11.9597 9.04422C11.9867 8.48205 12.0362 7.91987 12.0632 7.35769C12.0632 7.15531 12.0362 6.97541 11.9597 6.79552C11.7304 6.29181 11.1952 6.03545 10.66 6.16138Z" fill="#C1535D"/>
</svg>
