<svg width="55" height="55" viewBox="0 0 55 55" fill="none" xmlns="http://www.w3.org/2000/svg">
<g filter="url(#filter0_d)">
<g filter="url(#filter1_b)">
<path d="M27.5 10C17.835 10 10 17.835 10 27.5C10 37.1648 17.835 45 27.5 45C37.165 45 45 37.1648 45 27.5C45 17.835 37.165 10 27.5 10ZM32.8326 28.6852C32.7473 28.7705 32.6537 28.8426 32.5563 28.9052L25.9886 35.473C25.6696 35.7922 25.2515 35.9517 24.8333 35.9517C24.4152 35.9517 23.9973 35.7922 23.6781 35.473C23.0399 34.8348 23.0399 33.8 23.6781 33.1621L29.3375 27.5019L23.7066 21.8709C23.0684 21.2324 23.0684 20.198 23.7066 19.56C24.3448 18.9219 25.3794 18.9222 26.0175 19.5597L32.5562 26.098C32.6536 26.1607 32.7472 26.2327 32.8321 26.3181C33.1583 26.6443 33.3157 27.0739 33.3084 27.5018C33.3161 27.9293 33.159 28.3588 32.8326 28.6852Z" fill="white" fill-opacity="0.3"/>
</g>
</g>
<defs>
<filter id="filter0_d" x="0" y="0" width="55" height="55" filterUnits="userSpaceOnUse" color-interpolation-filters="sRGB">
<feFlood flood-opacity="0" result="BackgroundImageFix"/>
<feColorMatrix in="SourceAlpha" type="matrix" values="0 0 0 0 0 0 0 0 0 0 0 0 0 0 0 0 0 0 127 0"/>
<feOffset/>
<feGaussianBlur stdDeviation="5"/>
<feColorMatrix type="matrix" values="0 0 0 0 0.678431 0 0 0 0 0.0980392 0 0 0 0 0.152941 0 0 0 0.25 0"/>
<feBlend mode="normal" in2="BackgroundImageFix" result="effect1_dropShadow"/>
<feBlend mode="normal" in="SourceGraphic" in2="effect1_dropShadow" result="shape"/>
</filter>
<filter id="filter1_b" x="6" y="6" width="43" height="43" filterUnits="userSpaceOnUse" color-interpolation-filters="sRGB">
<feFlood flood-opacity="0" result="BackgroundImageFix"/>
<feGaussianBlur in="BackgroundImage" stdDeviation="2"/>
<feComposite in2="SourceAlpha" operator="in" result="effect1_backgroundBlur"/>
<feBlend mode="normal" in="SourceGraphic" in2="effect1_backgroundBlur" result="shape"/>
</filter>
</defs>
</svg>
