<svg width="24" height="20" viewBox="0 0 24 20" fill="none" xmlns="http://www.w3.org/2000/svg">
<path d="M21.9424 18.2759C23.2812 16.6762 24 14.8819 24 11.9734C24 6.8553 20.8063 2.26804 16.1621 0L15.0013 2.01506C19.3362 4.65307 20.1837 8.07633 20.5217 10.2347C19.8237 9.82818 18.9099 9.68633 18.0143 9.77992C15.6694 10.0241 13.8211 12.1898 13.8211 14.8819C13.8211 16.2393 14.3004 17.5411 15.1536 18.5009C16.0067 19.4608 17.1639 20 18.3705 20C19.0377 19.9934 19.6971 19.8376 20.3104 19.5416C20.9236 19.2457 21.4784 18.8154 21.9424 18.2759ZM8.94412 18.2759C10.2829 16.6762 11.0017 14.8819 11.0017 11.9734C11.0017 6.8553 7.80807 2.26804 3.1638 0L2.00306 2.01506C6.33797 4.65307 7.18546 8.07633 7.52341 10.2347C6.82541 9.82818 5.91163 9.68633 5.01605 9.77992C2.67117 10.0241 0.822815 12.1898 0.822815 14.8819C0.822815 16.2393 1.30212 17.5411 2.1553 18.5009C3.00848 19.4608 4.16563 20 5.3722 20C6.03946 19.9934 6.69889 19.8376 7.31211 19.5416C7.92534 19.2457 8.4801 18.8154 8.94412 18.2759Z" fill="#AD1927"/>
</svg>
