<svg width="556" height="692" viewBox="0 0 556 692" fill="none" xmlns="http://www.w3.org/2000/svg">
<path fill-rule="evenodd" clip-rule="evenodd" d="M534.153 257.628C553.88 305.05 568.893 355.882 552.989 405.875C534.913 462.696 502.885 525.751 441.063 550.256C379.747 574.561 313.678 541.625 251.086 525.544C199.282 512.234 143.29 501.719 109.972 465.19C78.393 430.567 90.7967 380.305 78.8575 336.715C65.335 287.345 12.6552 241.474 35.4783 193.215C58.2051 145.16 133.29 140.046 184.56 113.208C238.868 84.7802 284.192 21.2175 344.44 31.485C405.501 41.8912 413.778 115.2 450.066 158.456C478.603 192.472 517.543 217.699 534.153 257.628Z" fill="url(#paint0_linear)" fill-opacity="0.7"/>
<path fill-rule="evenodd" clip-rule="evenodd" d="M414.397 111.086C468.937 115.057 524.491 125.092 564.578 163.857C610.141 207.917 655.024 268.088 649.043 337.994C643.112 407.328 580.389 453.912 535.373 505.237C498.117 547.716 461.535 595.47 410.926 609.486C362.957 622.771 320.953 587.176 273.758 577.69C220.305 566.947 151.609 594.762 116.456 550.302C81.4516 506.03 112.2 432.852 110.952 371.779C109.63 307.087 70.5703 234.147 108.934 182.265C147.816 129.682 221.589 156.755 280.018 143.14C325.965 132.433 368.474 107.743 414.397 111.086Z" fill="url(#paint1_linear)"/>
<defs>
<linearGradient id="paint0_linear" x1="545.225" y1="263.381" x2="51.5805" y2="349.13" gradientUnits="userSpaceOnUse">
<stop stop-color="#AD1927"/>
<stop offset="1" stop-color="#F6B5CC"/>
</linearGradient>
<linearGradient id="paint1_linear" x1="425.131" y1="103.391" x2="272.647" y2="609.296" gradientUnits="userSpaceOnUse">
<stop stop-color="#AD1927"/>
<stop offset="1" stop-color="#F6B5CC"/>
</linearGradient>
</defs>
</svg>
