<svg width="60" height="60" viewBox="0 0 60 60" fill="none" xmlns="http://www.w3.org/2000/svg">
<circle cx="30" cy="30" r="30" fill="#AD1927"/>
<path d="M21.9889 20H37.8C38.3445 20 38.7778 20.4875 38.7778 21.1V38.9C38.7778 39.5 38.3445 40 37.8 40H33.2667V32.25H35.5778L35.9222 29.2375H33.2667V27.3125C33.2667 26.4375 33.4889 25.8375 34.6 25.8375H36.0222V23.1375C35.7778 23.1 34.9333 23.025 33.9556 23.025C31.9 23.025 30.5 24.425 30.5 27.0125V29.2375H28.1778V32.25H30.5V40H21.9889C21.7285 40 21.4787 39.8845 21.2935 39.6786C21.1084 39.4727 21.0029 39.1929 21 38.9V21.1C21 20.4875 21.4444 20 21.9889 20Z" fill="white"/>
</svg>
