<svg width="60" height="60" viewBox="0 0 60 60" fill="none" xmlns="http://www.w3.org/2000/svg">
<circle cx="30" cy="30" r="30" fill="#AD1927"/>
<path d="M36.873 20H22.9048C21.8532 20 21 20.9598 21 22.1429V37.8571C21 39.0402 21.8532 40 22.9048 40H36.873C37.9246 40 38.7778 39.0402 38.7778 37.8571V22.1429C38.7778 20.9598 37.9246 20 36.873 20ZM34.9325 27.0893C34.9405 27.2143 34.9405 27.3438 34.9405 27.4688C34.9405 31.3393 32.3214 35.7991 27.5357 35.7991C26.0595 35.7991 24.6905 35.317 23.5397 34.4866C23.75 34.5134 23.9524 34.5223 24.1667 34.5223C25.3849 34.5223 26.504 34.058 27.3968 33.2723C26.254 33.2455 25.2936 32.4018 24.9643 31.2411C25.3651 31.308 25.7262 31.308 26.1389 31.1875C24.9484 30.9152 24.0556 29.7366 24.0556 28.3125V28.2768C24.4008 28.4955 24.8055 28.6295 25.2302 28.6473C24.8732 28.3802 24.5805 28.0178 24.3784 27.5925C24.1762 27.1672 24.0707 26.6921 24.0714 26.2098C24.0714 25.6652 24.1984 25.1652 24.4246 24.7321C25.7063 26.5089 27.6309 27.6696 29.7897 27.7946C29.4206 25.808 30.742 24.1964 32.3293 24.1964C33.0793 24.1964 33.7539 24.5491 34.2301 25.1205C34.8174 24.9955 35.3809 24.75 35.8809 24.4152C35.6865 25.0938 35.2778 25.6652 34.7381 26.0268C35.2619 25.9643 35.7698 25.7991 36.2381 25.5714C35.8849 26.1563 35.4405 26.6741 34.9325 27.0893Z" fill="white"/>
</svg>
