<svg width="60" height="60" viewBox="0 0 60 60" fill="none" xmlns="http://www.w3.org/2000/svg">
<circle cx="30" cy="30" r="30" fill="#AD1927"/>
<path d="M29.9975 26.6652C28.1613 26.6652 26.6627 28.1638 26.6627 30C26.6627 31.8362 28.1613 33.3348 29.9975 33.3348C31.8337 33.3348 33.3323 31.8362 33.3323 30C33.3323 28.1638 31.8337 26.6652 29.9975 26.6652ZM39.9993 30C39.9993 28.6191 40.0118 27.2506 39.9342 25.8722C39.8567 24.2711 39.4914 22.8502 38.3206 21.6794C37.1473 20.5061 35.7289 20.1433 34.1278 20.0658C32.7469 19.9882 31.3784 20.0007 30 20.0007C28.6191 20.0007 27.2506 19.9882 25.8722 20.0658C24.2711 20.1433 22.8502 20.5086 21.6794 21.6794C20.5061 22.8527 20.1433 24.2711 20.0658 25.8722C19.9882 27.2531 20.0007 28.6216 20.0007 30C20.0007 31.3784 19.9882 32.7494 20.0658 34.1278C20.1433 35.7289 20.5086 37.1498 21.6794 38.3206C22.8527 39.4939 24.2711 39.8567 25.8722 39.9342C27.2531 40.0118 28.6216 39.9993 30 39.9993C31.3809 39.9993 32.7494 40.0118 34.1278 39.9342C35.7289 39.8567 37.1498 39.4914 38.3206 38.3206C39.4939 37.1473 39.8567 35.7289 39.9342 34.1278C40.0143 32.7494 39.9993 31.3809 39.9993 30ZM29.9975 35.131C27.1581 35.131 24.8665 32.8394 24.8665 30C24.8665 27.1606 27.1581 24.869 29.9975 24.869C32.8369 24.869 35.1285 27.1606 35.1285 30C35.1285 32.8394 32.8369 35.131 29.9975 35.131ZM35.3386 25.8572C34.6757 25.8572 34.1403 25.3218 34.1403 24.6589C34.1403 23.9959 34.6757 23.4606 35.3386 23.4606C36.0016 23.4606 36.5369 23.9959 36.5369 24.6589C36.5371 24.8163 36.5063 24.9722 36.4461 25.1177C36.386 25.2632 36.2977 25.3954 36.1864 25.5067C36.0751 25.618 35.9429 25.7062 35.7974 25.7664C35.6519 25.8265 35.496 25.8574 35.3386 25.8572Z" fill="white"/>
</svg>
