<svg width="18" height="18" viewBox="0 0 18 18" fill="none" xmlns="http://www.w3.org/2000/svg">
<path d="M8.88798 6.1381C7.25559 6.1381 5.92344 7.44048 5.92344 9.03639C5.92344 10.6323 7.25559 11.9347 8.88798 11.9347C10.5204 11.9347 11.8525 10.6323 11.8525 9.03639C11.8525 7.44048 10.5204 6.1381 8.88798 6.1381ZM17.7794 9.03639C17.7794 7.8362 17.7905 6.64688 17.7216 5.44886C17.6526 4.05733 17.3279 2.82235 16.2871 1.80479C15.2441 0.785063 13.9831 0.469795 12.5597 0.402392C11.3321 0.33499 10.1156 0.345862 8.8902 0.345862C7.66257 0.345862 6.44607 0.33499 5.22066 0.402392C3.79733 0.469795 2.53412 0.787237 1.49331 1.80479C0.450268 2.82452 0.127793 4.05733 0.0588507 5.44886C-0.0100921 6.64905 0.00102772 7.83837 0.00102772 9.03639C0.00102772 10.2344 -0.0100921 11.4259 0.0588507 12.6239C0.127793 14.0155 0.452492 15.2504 1.49331 16.268C2.53634 17.2877 3.79733 17.603 5.22066 17.6704C6.44829 17.7378 7.6648 17.7269 8.8902 17.7269C10.1178 17.7269 11.3343 17.7378 12.5597 17.6704C13.9831 17.603 15.2463 17.2856 16.2871 16.268C17.3301 15.2483 17.6526 14.0155 17.7216 12.6239C17.7927 11.4259 17.7794 10.2366 17.7794 9.03639ZM8.88798 13.4958C6.36378 13.4958 4.32663 11.5042 4.32663 9.03639C4.32663 6.5686 6.36378 4.57698 8.88798 4.57698C11.4122 4.57698 13.4493 6.5686 13.4493 9.03639C13.4493 11.5042 11.4122 13.4958 8.88798 13.4958ZM13.6361 5.43581C13.0468 5.43581 12.5709 4.97052 12.5709 4.39434C12.5709 3.81816 13.0468 3.35287 13.6361 3.35287C14.2255 3.35287 14.7014 3.81816 14.7014 4.39434C14.7016 4.53116 14.6742 4.66666 14.6207 4.7931C14.5672 4.91953 14.4887 5.03441 14.3898 5.13116C14.2908 5.2279 14.1733 5.30461 14.044 5.35689C13.9147 5.40916 13.7761 5.43598 13.6361 5.43581Z" fill="#727272"/>
</svg>
