<svg width="24" height="25" viewBox="0 0 24 25" fill="none" xmlns="http://www.w3.org/2000/svg">
<path d="M12.0004 0.793457C5.37295 0.793457 0.000366212 6.04598 0.000366212 12.5253C0.000366213 19.0046 5.37295 24.2571 12.0004 24.2571C18.6278 24.2571 24.0004 19.0046 24.0004 12.5253C24.0004 6.04598 18.6278 0.793457 12.0004 0.793457ZM7.68787 5.45354C7.93511 5.43929 8.15859 5.58376 8.32801 5.8402L9.96863 8.882C10.1414 9.24244 10.0432 9.62838 9.78553 9.88591L9.03407 10.6206C8.98769 10.6827 8.95717 10.7527 8.95643 10.8297C9.24461 11.9202 10.1188 12.9262 10.89 13.618C11.6613 14.3098 12.4902 15.2464 13.5663 15.4683C13.6993 15.5045 13.8622 15.5175 13.9574 15.4311L14.8304 14.5618C15.1318 14.3385 15.5678 14.2302 15.8895 14.4128L15.9042 14.4128L18.8646 16.1213C19.2991 16.3876 19.3442 16.9024 19.033 17.2155L16.994 19.1932C16.6929 19.4951 16.2929 19.5966 15.9042 19.5971C14.1852 19.5467 12.561 18.7219 11.227 17.8742C9.03717 16.3168 7.02851 14.3851 5.76747 12.0513C5.28383 11.0726 4.71569 9.82399 4.76991 8.73167C4.77475 8.32074 4.88847 7.91817 5.18447 7.6533L7.22353 5.65981C7.38237 5.52767 7.53951 5.46211 7.68787 5.45354Z" fill="#727272"/>
</svg>
