<svg width="18" height="21" viewBox="0 0 18 21" fill="none" xmlns="http://www.w3.org/2000/svg">
<path d="M0.989256 0.76001L16.8004 0.76001C17.3448 0.76001 17.7782 1.23662 17.7782 1.83543L17.7782 19.2377C17.7782 19.8243 17.3448 20.3131 16.8004 20.3131L12.267 20.3131L12.267 12.7363L14.5782 12.7363L14.9226 9.79109L12.267 9.79109L12.267 7.9091C12.267 7.05365 12.4893 6.46706 13.6004 6.46706L15.0226 6.46706L15.0226 3.8274C14.7782 3.79074 13.9337 3.71741 12.9559 3.71741C10.9004 3.71741 9.50037 5.08613 9.50037 7.61581L9.50037 9.79109L7.17815 9.79109L7.17815 12.7363L9.50037 12.7363L9.50037 20.3131L0.989256 20.3131C0.7289 20.3131 0.479041 20.2002 0.293904 19.9989C0.108768 19.7975 0.00329156 19.524 0.000366213 19.2377L0.000366211 1.83543C0.000366211 1.23662 0.444811 0.76001 0.989256 0.76001Z" fill="#727272"/>
</svg>
