<svg width="24" height="24" viewBox="0 0 24 24" fill="none" xmlns="http://www.w3.org/2000/svg">
<path fill-rule="evenodd" clip-rule="evenodd" d="M12.0004 23.5364C18.6278 23.5364 24.0004 18.2839 24.0004 11.8046C24.0004 5.32528 18.6278 0.0727539 12.0004 0.0727539C5.37295 0.0727539 0.000366212 5.32528 0.000366212 11.8046C0.000366213 18.2839 5.37295 23.5364 12.0004 23.5364ZM18.3081 14.8124L18.3081 9.45265L12.3496 12.8805C12.2904 12.9146 12.2229 12.9326 12.1542 12.9326C12.0855 12.9326 12.018 12.9146 11.9588 12.8805L6.00037 9.45265L6.00037 14.8124C6.00037 15.3111 6.20298 15.7893 6.56362 16.1419C6.92427 16.4945 7.41341 16.6926 7.92344 16.6926L16.385 16.6926C16.895 16.6926 17.3842 16.4945 17.7448 16.1419C18.1054 15.7893 18.3081 15.3111 18.3081 14.8124ZM17.6674 7.39487C17.3148 7.08643 16.8582 6.91594 16.385 6.91602L7.92344 6.91602C7.45025 6.91594 6.99365 7.08643 6.64098 7.39487C6.28831 7.70331 6.06433 8.12804 6.0119 8.5878L12.1542 12.1201L18.2965 8.5878C18.2441 8.12804 18.0201 7.70331 17.6674 7.39487Z" fill="#727272"/>
</svg>
