<svg width="18" height="21" viewBox="0 0 18 21" fill="none" xmlns="http://www.w3.org/2000/svg">
<path d="M15.8734 0.910889L1.90513 0.910889C0.853539 0.910889 0.000366211 1.84926 0.000366211 3.00586L0.000366213 18.369C0.000366213 19.5256 0.853539 20.464 1.90513 20.464L15.8734 20.464C16.9249 20.464 17.7781 19.5256 17.7781 18.369L17.7781 3.00586C17.7781 1.84926 16.9249 0.910889 15.8734 0.910889ZM13.9329 7.84175C13.9408 7.96396 13.9408 8.09053 13.9408 8.21274C13.9408 11.9968 11.3218 16.3569 6.53607 16.3569C5.05988 16.3569 3.69084 15.8856 2.54004 15.0738C2.75036 15.1 2.95274 15.1087 3.16703 15.1087C4.38528 15.1087 5.50433 14.6548 6.39718 13.8866C5.25433 13.8604 4.29401 13.0355 3.96465 11.9008C4.36544 11.9662 4.72655 11.9662 5.13925 11.8484C3.94877 11.5822 3.05592 10.4299 3.05592 9.03763L3.05592 9.00272C3.40115 9.21658 3.80592 9.34752 4.23052 9.36497C3.87355 9.10382 3.58091 8.74952 3.37872 8.3337C3.17654 7.91789 3.07109 7.45349 3.07179 6.98194C3.07179 6.44947 3.19877 5.96064 3.42496 5.53729C4.70671 7.27437 6.63131 8.40914 8.79004 8.53135C8.42099 6.58914 9.74241 5.01354 11.3297 5.01354C12.0797 5.01354 12.7543 5.35834 13.2305 5.917C13.8178 5.79479 14.3813 5.55474 14.8813 5.2274C14.6869 5.89081 14.2781 6.44947 13.7384 6.803C14.2622 6.74189 14.7702 6.58041 15.2384 6.35782C14.8853 6.92957 14.4408 7.43585 13.9329 7.84175Z" fill="#727272"/>
</svg>
