<svg width="18" height="20" viewBox="0 0 18 20" fill="none" xmlns="http://www.w3.org/2000/svg">
<path d="M16.3563 0.0170898L1.51941 0.0170898C0.708697 0.0170898 0.000366211 0.658675 0.000366211 1.53987L0.000366213 17.8946C0.000366213 18.7806 0.708697 19.5702 1.51941 19.5702L16.3519 19.5702C17.167 19.5702 17.7781 18.7754 17.7781 17.8946L17.7781 1.53987C17.7829 0.658675 17.167 0.0170898 16.3563 0.0170898ZM5.51106 16.3155L2.96425 16.3155L2.96425 7.60613L5.51106 7.60613L5.51106 16.3155ZM4.32575 6.28193L4.3075 6.28193C3.49242 6.28193 2.96464 5.61459 2.96464 4.77922C2.96464 3.92858 3.50631 3.27695 4.33964 3.27695C5.17297 3.27695 5.68289 3.92378 5.70114 4.77922C5.70075 5.61459 5.17297 6.28193 4.32575 6.28193ZM14.819 16.3155L12.2722 16.3155L12.2722 11.5534C12.2722 10.4125 11.9015 9.63301 10.9801 9.63301C10.2761 9.63301 9.85946 10.1568 9.67414 10.667C9.6047 10.8503 9.58605 11.0999 9.58605 11.3548L9.58605 16.3155L7.03923 16.3155L7.03923 7.60613L9.58605 7.60613L9.58605 8.81815C9.95668 8.23767 10.5357 7.4023 11.8829 7.4023C13.5547 7.4023 14.8194 8.61433 14.8194 11.2274L14.819 16.3155Z" fill="#727272"/>
</svg>
