<svg width="18" height="15" viewBox="0 0 18 15" fill="none" xmlns="http://www.w3.org/2000/svg">
<path d="M17.6661 3.36196C17.6661 1.64299 16.5165 0.260182 15.096 0.260182C13.1719 0.161246 11.2096 0.123047 9.20428 0.123047L8.57912 0.123047C6.57862 0.123047 4.61285 0.161246 2.68875 0.260564C1.27173 0.260564 0.122136 1.65102 0.122136 3.36998C0.0353084 4.72949 -0.00150644 6.08939 0.000577413 7.44928C-0.00289568 8.80917 0.0364661 10.1703 0.118663 11.5328C0.118663 13.2517 1.26826 14.646 2.68528 14.646C4.70662 14.7492 6.78006 14.795 8.88823 14.7912C10.9999 14.7988 13.0675 14.7504 15.0912 14.646C16.5117 14.646 17.6613 13.2517 17.6613 11.5328C17.7446 10.1691 17.7828 8.80917 17.7793 7.44546C17.7872 6.08557 17.7495 4.7244 17.6661 3.36196ZM7.18988 11.1966L7.18988 3.69047L12.2259 7.44164L7.18988 11.1966Z" fill="#727272"/>
</svg>
