<svg width="19" height="20" viewBox="0 0 19 20" fill="none" xmlns="http://www.w3.org/2000/svg">
<path d="M16.6508 0H2.68259C1.63101 0 0.777832 0.959821 0.777832 2.14286V17.8571C0.777832 19.0402 1.63101 20 2.68259 20H16.6508C17.7024 20 18.5556 19.0402 18.5556 17.8571V2.14286C18.5556 0.959821 17.7024 0 16.6508 0ZM14.7104 7.08929C14.7183 7.21429 14.7183 7.34375 14.7183 7.46875C14.7183 11.3393 12.0992 15.7991 7.31354 15.7991C5.83735 15.7991 4.4683 15.317 3.31751 14.4866C3.52783 14.5134 3.73021 14.5223 3.94449 14.5223C5.16275 14.5223 6.28179 14.058 7.17465 13.2723C6.03179 13.2455 5.07148 12.4018 4.74211 11.2411C5.1429 11.308 5.50401 11.308 5.91671 11.1875C4.72624 10.9152 3.83338 9.73661 3.83338 8.3125V8.27679C4.17862 8.49554 4.58338 8.62946 5.00798 8.64732C4.65101 8.38019 4.35837 8.0178 4.15619 7.59248C3.954 7.16716 3.84855 6.69214 3.84926 6.20982C3.84926 5.66518 3.97624 5.16518 4.20243 4.73214C5.48417 6.50893 7.40877 7.66964 9.5675 7.79464C9.19845 5.80804 10.5199 4.19643 12.1072 4.19643C12.8572 4.19643 13.5318 4.54911 14.008 5.12054C14.5953 4.99554 15.1588 4.75 15.6588 4.41518C15.4643 5.09375 15.0556 5.66518 14.5159 6.02679C15.0397 5.96429 15.5477 5.79911 16.0159 5.57143C15.6627 6.15625 15.2183 6.67411 14.7104 7.08929Z" fill="white"/>
</svg>
