<svg width="20" height="20" viewBox="0 0 20 20" fill="none" xmlns="http://www.w3.org/2000/svg">
<path d="M12.4829 1.70472C11.6839 0.867716 10.3909 1.31772 10.0519 2.29472C9.7719 3.10072 9.4079 4.06672 9.0539 4.77772C7.9939 6.90372 7.3759 8.11272 5.6699 9.62672C5.41986 9.83723 5.13535 10.003 4.8289 10.1167C3.6989 10.5627 2.6389 11.7327 2.9159 13.1217L3.2689 14.8867C3.35992 15.3421 3.57597 15.7631 3.89284 16.1026C4.20971 16.4421 4.61487 16.6866 5.0629 16.8087L10.6629 18.3357C11.2646 18.4996 11.8937 18.5366 12.5104 18.4445C13.1271 18.3523 13.718 18.133 14.2454 17.8005C14.7729 17.4679 15.2255 17.0293 15.5745 16.5126C15.9236 15.9959 16.1614 15.4122 16.2729 14.7987L16.9579 11.0377C17.0366 10.6053 17.0193 10.1609 16.9072 9.73597C16.7952 9.31101 16.5912 8.91584 16.3096 8.57843C16.028 8.24102 15.6757 7.96961 15.2776 7.78337C14.8795 7.59714 14.4454 7.50065 14.0059 7.50072H13.1229L13.1329 7.44872C13.2129 7.03972 13.3089 6.47872 13.3729 5.86572C13.4379 5.25572 13.4729 4.58072 13.4219 3.95272C13.3719 3.33672 13.2379 2.70372 12.9179 2.22272C12.7872 2.03852 12.6417 1.86528 12.4829 1.70472Z" fill="white"/>
</svg>
