<svg width="24" height="24" viewBox="0 0 24 24" fill="none" xmlns="http://www.w3.org/2000/svg">
<path d="M17.0003 23.9999H3.00006C1.34602 23.9999 0 22.6539 0 20.9998V6.99957C0 5.34554 1.34602 3.99951 3.00006 3.99951H11.0002C11.5532 3.99951 12.0002 4.44752 12.0002 4.99953C12.0002 5.55154 11.5532 5.99955 11.0002 5.99955H3.00006C2.44805 5.99955 2.00004 6.44856 2.00004 6.99957V20.9998C2.00004 21.5508 2.44805 21.9998 3.00006 21.9998H17.0003C17.5523 21.9998 18.0003 21.5508 18.0003 20.9998V12.9997C18.0003 12.4477 18.4473 11.9997 19.0004 11.9997C19.5534 11.9997 20.0004 12.4477 20.0004 12.9997V20.9998C20.0004 22.6539 18.6544 23.9999 17.0003 23.9999Z" fill="#C1535D"/>
<path d="M17.2894 3.17627L9.3773 11.0884C9.3073 11.1584 9.2603 11.2474 9.2403 11.3434L8.53329 14.8795C8.50029 15.0435 8.55129 15.2135 8.67029 15.3315C8.76529 15.4265 8.89329 15.4775 9.0243 15.4775L9.1223 15.4675L12.6574 14.7605C12.7554 14.7415 12.8434 14.6935 12.9134 14.6235L20.8255 6.71134L17.2894 3.17627Z" fill="#C1535D"/>
<path d="M23.2687 0.731264C22.2937 -0.243755 20.7077 -0.243755 19.7336 0.731264L18.3496 2.11529L21.8847 5.65036L23.2687 4.26633C23.7407 3.79532 24.0007 3.16731 24.0007 2.4993C24.0007 1.83128 23.7407 1.20327 23.2687 0.731264Z" fill="#C1535D"/>
<path d="M19.0032 12C18.4501 12 18.0031 12.448 18.0031 13V21.0002C18.0031 21.5512 17.5551 22.0002 17.0031 22.0002H3.00285C2.72685 22.0002 2.47684 21.8882 2.29584 21.7072L0.882812 23.1202C1.42582 23.6642 2.17584 24.0002 3.00285 24.0002H17.0031C18.6571 24.0002 20.0032 22.6542 20.0032 21.0002V13C20.0032 12.447 19.5562 12 19.0032 12Z" fill="#AD1927"/>
<path d="M19.0571 4.94385L8.66992 15.331C8.76492 15.426 8.89293 15.477 9.02393 15.477L9.12193 15.467L12.657 14.76C12.755 14.741 12.843 14.693 12.913 14.623L20.8252 6.71088L19.0571 4.94385Z" fill="#AD1927" fill-opacity="0.75"/>
<path d="M23.2663 0.731445L20.1152 3.8825L21.8833 5.65054L23.2673 4.26651C23.7383 3.7955 23.9983 3.16749 23.9983 2.49948C23.9983 1.83147 23.7383 1.20345 23.2663 0.731445Z" fill="#AD1927" fill-opacity="0.75"/>
</svg>
