<svg width="25" height="20" viewBox="0 0 25 20" fill="none" xmlns="http://www.w3.org/2000/svg">
<path d="M23.8813 4.41603C23.8813 2.07234 22.3489 0.186974 20.4554 0.186974C17.8907 0.0520817 15.275 0 12.6019 0H11.7686C9.10205 0 6.48175 0.0520819 3.91701 0.187495C2.02817 0.187495 0.49581 2.08328 0.49581 4.42696C0.380073 6.28056 0.331 8.13468 0.333778 9.98879C0.329148 11.8429 0.381616 13.6988 0.491181 15.5563C0.491181 17.9 2.02354 19.801 3.91238 19.801C6.60675 19.9416 9.37055 20.0041 12.1807 19.9989C14.9954 20.0094 17.7515 19.9434 20.4489 19.801C22.3424 19.801 23.8748 17.9 23.8748 15.5563C23.9859 13.697 24.0368 11.8429 24.0322 9.98358C24.0427 8.12947 23.9924 6.27361 23.8813 4.41603ZM9.91684 15.098V4.86393L16.6296 9.97837L9.91684 15.098Z" fill="white"/>
</svg>
